<svg width="619" height="509" viewBox="0 0 619 509" fill="none" xmlns="http://www.w3.org/2000/svg">
<g clip-path="url(#clip0_403_48)">
<path d="M494.044 52.93C492.704 57.89 494.244 65.7 494.824 70.33C495.444 75.28 486.864 79.71 481.954 79.99C482.075 78.3515 481.615 76.7229 480.654 75.39C480.643 76.9751 480.316 78.5421 479.694 80H438.724C433.564 70.29 429.174 57.02 433.914 43.3C434.155 40.5445 435.203 37.9214 436.929 35.7598C438.655 33.5982 440.98 31.9945 443.614 31.15L465.954 24C474.764 24 485.574 25.25 490.444 31.81C492.6 34.8302 494.043 38.2993 494.667 41.957C495.29 45.6148 495.078 49.3663 494.044 52.93Z" fill="#2F2E41"/>
<path d="M475 460H464.159L459 422H475V460Z" fill="#FFB6B6"/>
<path d="M481 477H473.015L471.59 470.264L467.939 477H446.761C445.746 477 444.757 476.71 443.939 476.173C443.122 475.635 442.518 474.878 442.216 474.012C441.914 473.146 441.929 472.217 442.26 471.359C442.591 470.502 443.22 469.761 444.056 469.246L460.968 458.81V452L478.757 452.949L481 477Z" fill="#2F2E41"/>
<path d="M492 390.921L484.205 398L450 374.448L461.504 364L492 390.921Z" fill="#FFB6B6"/>
<path d="M510 399.253L504.392 404.267L498.021 400.495L500.827 407.453L485.954 420.749C485.241 421.387 484.315 421.807 483.313 421.948C482.31 422.089 481.282 421.943 480.38 421.533C479.477 421.123 478.747 420.469 478.296 419.667C477.845 418.866 477.696 417.958 477.872 417.076L481.429 399.228L476 394.511L489.25 384L510 399.253Z" fill="#2F2E41"/>
<path d="M403.898 180.267L437.285 127.148C438.693 124.894 439.157 122.176 438.579 119.582C438.001 116.987 436.426 114.724 434.194 113.281C433.039 112.534 431.744 112.031 430.388 111.801C429.033 111.571 427.644 111.619 426.308 111.943C424.972 112.268 423.715 112.86 422.616 113.686C421.516 114.511 420.596 115.552 419.911 116.745L386.922 172.986L365.436 206.315C363.649 206.002 361.809 206.248 360.165 207.018C358.522 207.788 357.156 209.046 356.253 210.619C355.349 212.193 354.952 214.007 355.115 215.814C355.278 217.621 355.993 219.334 357.164 220.721C358.335 222.107 359.904 223.1 361.658 223.564C363.413 224.027 365.267 223.94 366.97 223.313C368.673 222.686 370.141 221.549 371.176 220.059C372.211 218.568 372.761 216.795 372.753 214.98L403.898 180.267Z" fill="#FFB6B6"/>
<path d="M435.362 141.04L438.177 140.509C437.798 139.819 437.639 139.028 437.723 138.245C437.807 137.461 438.129 136.722 438.645 136.127C439.161 135.532 439.848 135.11 440.612 134.916C441.376 134.723 442.18 134.768 442.918 135.046C439.526 131.509 441.173 125.685 443.355 121.297C444.932 118.125 446.704 114.991 447.476 111.534C448.648 106.286 447.137 99.9343 440.138 98.6777C437.276 98.23 434.349 98.8227 431.887 100.348C427.488 102.948 426.499 101.816 423.724 106L422.142 108.94C420.11 112.122 417.686 115.036 414.926 117.612C412.952 119.578 411.361 121.893 410.235 124.441C410.087 124.756 409.868 125.033 409.596 125.25C408.513 126.087 407.042 126.129 405.685 126.307C403.975 126.532 402.019 127.256 402.063 129.377C402.088 129.884 402.217 130.38 402.443 130.835C402.669 131.29 402.987 131.693 403.376 132.019C410.596 138.337 419.045 143.094 428.192 145.991C430.224 146.633 432.507 147.165 434.418 146.223C436.329 145.281 437.15 142.2 435.362 141.04Z" fill="#519EE6"/>
<path d="M477.724 242L412.724 241L410.724 226L416.724 192H467.724L477.724 242Z" fill="#FFB6B6"/>
<path d="M338.724 282H85.7241C79.6262 281.993 73.7801 279.568 69.4682 275.256C65.1564 270.944 62.731 265.098 62.7241 259V114C62.7311 107.902 65.1565 102.056 69.4683 97.7442C73.7802 93.4324 79.6263 91.0069 85.7241 91H338.724C344.822 91.0069 350.668 93.4324 354.98 97.7442C359.292 102.056 361.717 107.902 361.724 114V259C361.717 265.098 359.292 270.944 354.98 275.256C350.668 279.568 344.822 281.993 338.724 282Z" fill="white"/>
<path d="M338.724 282H85.7241C79.6262 281.993 73.7801 279.568 69.4682 275.256C65.1564 270.944 62.731 265.098 62.7241 259V114C62.7311 107.902 65.1565 102.056 69.4683 97.7442C73.7802 93.4324 79.6263 91.0069 85.7241 91H338.724C344.822 91.0069 350.668 93.4324 354.98 97.7442C359.292 102.056 361.717 107.902 361.724 114V259C361.717 265.098 359.292 270.944 354.98 275.256C350.668 279.568 344.822 281.993 338.724 282ZM85.7241 93C80.1565 93.0062 74.8187 95.2207 70.8818 99.1577C66.9449 103.095 64.7304 108.432 64.7241 114V259C64.7304 264.568 66.945 269.905 70.8819 273.842C74.8188 277.779 80.1565 279.994 85.7241 280H338.724C344.292 279.994 349.629 277.779 353.566 273.842C357.503 269.905 359.718 264.568 359.724 259V114C359.718 108.432 357.503 103.095 353.566 99.1577C349.63 95.2207 344.292 93.0062 338.724 93H85.7241Z" fill="#E6E6E6"/>
<path d="M359.725 196.339H63.7236C63.4584 196.339 63.204 196.234 63.0165 196.046C62.829 195.859 62.7236 195.605 62.7236 195.339C62.7236 195.074 62.829 194.82 63.0165 194.632C63.204 194.445 63.4584 194.339 63.7236 194.339H359.725C359.991 194.339 360.245 194.445 360.432 194.632C360.62 194.82 360.725 195.074 360.725 195.339C360.725 195.605 360.62 195.859 360.432 196.046C360.245 196.234 359.991 196.339 359.725 196.339Z" fill="#E6E6E6"/>
<path d="M337.724 47C342.695 47 346.724 42.9706 346.724 38C346.724 33.0294 342.695 29 337.724 29C332.754 29 328.724 33.0294 328.724 38C328.724 42.9706 332.754 47 337.724 47Z" fill="#F2F2F2"/>
<path d="M9 190.3C13.9706 190.3 18 186.271 18 181.3C18 176.329 13.9706 172.3 9 172.3C4.02944 172.3 0 176.329 0 181.3C0 186.271 4.02944 190.3 9 190.3Z" fill="#F2F2F2"/>
<path d="M194 344.3C198.971 344.3 203 340.271 203 335.3C203 330.329 198.971 326.3 194 326.3C189.029 326.3 185 330.329 185 335.3C185 340.271 189.029 344.3 194 344.3Z" fill="#F2F2F2"/>
<path d="M139.646 240.3H108.401C108.136 240.3 107.882 240.195 107.694 240.007C107.507 239.82 107.401 239.565 107.401 239.3C107.401 239.035 107.507 238.78 107.694 238.593C107.882 238.405 108.136 238.3 108.401 238.3H139.646C139.911 238.3 140.165 238.405 140.353 238.593C140.54 238.78 140.646 239.035 140.646 239.3C140.646 239.565 140.54 239.82 140.353 240.007C140.165 240.195 139.911 240.3 139.646 240.3Z" fill="#CCCCCC"/>
<path d="M139.646 256.3H108.401C108.136 256.3 107.882 256.195 107.694 256.007C107.507 255.82 107.401 255.565 107.401 255.3C107.401 255.035 107.507 254.78 107.694 254.593C107.882 254.405 108.136 254.3 108.401 254.3H139.646C139.911 254.3 140.165 254.405 140.353 254.593C140.54 254.78 140.646 255.035 140.646 255.3C140.646 255.565 140.54 255.82 140.353 256.007C140.165 256.195 139.911 256.3 139.646 256.3Z" fill="#CCCCCC"/>
<path d="M310.646 240.3H279.401C279.136 240.3 278.882 240.195 278.694 240.007C278.507 239.82 278.401 239.565 278.401 239.3C278.401 239.035 278.507 238.78 278.694 238.593C278.882 238.405 279.136 238.3 279.401 238.3H310.646C310.911 238.3 311.165 238.405 311.353 238.593C311.54 238.78 311.646 239.035 311.646 239.3C311.646 239.565 311.54 239.82 311.353 240.007C311.165 240.195 310.911 240.3 310.646 240.3Z" fill="#CCCCCC"/>
<path d="M310.646 256.3H279.401C279.136 256.3 278.882 256.195 278.694 256.007C278.507 255.82 278.401 255.565 278.401 255.3C278.401 255.035 278.507 254.78 278.694 254.593C278.882 254.405 279.136 254.3 279.401 254.3H310.646C310.911 254.3 311.165 254.405 311.353 254.593C311.54 254.78 311.646 255.035 311.646 255.3C311.646 255.565 311.54 255.82 311.353 256.007C311.165 256.195 310.911 256.3 310.646 256.3Z" fill="#CCCCCC"/>
<path d="M253.646 240.3H222.401C222.136 240.3 221.882 240.195 221.694 240.007C221.507 239.82 221.401 239.565 221.401 239.3C221.401 239.035 221.507 238.78 221.694 238.593C221.882 238.405 222.136 238.3 222.401 238.3H253.646C253.911 238.3 254.165 238.405 254.353 238.593C254.54 238.78 254.646 239.035 254.646 239.3C254.646 239.565 254.54 239.82 254.353 240.007C254.165 240.195 253.911 240.3 253.646 240.3Z" fill="#CCCCCC"/>
<path d="M253.646 256.3H222.401C222.136 256.3 221.882 256.195 221.694 256.007C221.507 255.82 221.401 255.565 221.401 255.3C221.401 255.035 221.507 254.78 221.694 254.593C221.882 254.405 222.136 254.3 222.401 254.3H253.646C253.911 254.3 254.165 254.405 254.353 254.593C254.54 254.78 254.646 255.035 254.646 255.3C254.646 255.565 254.54 255.82 254.353 256.007C254.165 256.195 253.911 256.3 253.646 256.3Z" fill="#CCCCCC"/>
<path d="M196.646 240.3H165.401C165.136 240.3 164.882 240.195 164.694 240.007C164.507 239.82 164.401 239.565 164.401 239.3C164.401 239.035 164.507 238.78 164.694 238.593C164.882 238.405 165.136 238.3 165.401 238.3H196.646C196.911 238.3 197.165 238.405 197.353 238.593C197.54 238.78 197.646 239.035 197.646 239.3C197.646 239.565 197.54 239.82 197.353 240.007C197.165 240.195 196.911 240.3 196.646 240.3Z" fill="#CCCCCC"/>
<path d="M196.646 256.3H165.401C165.136 256.3 164.882 256.195 164.694 256.007C164.507 255.82 164.401 255.565 164.401 255.3C164.401 255.035 164.507 254.78 164.694 254.593C164.882 254.405 165.136 254.3 165.401 254.3H196.646C196.911 254.3 197.165 254.405 197.353 254.593C197.54 254.78 197.646 255.035 197.646 255.3C197.646 255.565 197.54 255.82 197.353 256.007C197.165 256.195 196.911 256.3 196.646 256.3Z" fill="#CCCCCC"/>
<path d="M410.872 224.787L408.882 248.91L371.333 309.301C369.529 311.99 368.738 315.129 369.076 318.253C369.415 321.377 370.864 324.32 373.211 326.647L432.095 374.551C432.095 374.551 443.671 374.892 442.696 379.804C441.721 384.716 447.908 384.483 447.908 384.483L454.87 389L458.638 363.273C445.978 337.894 427.205 330.151 410.872 318.444C410.872 318.444 417.759 316.606 416.306 314.476C414.852 312.346 419.416 312.205 419.416 312.205C419.416 312.205 422.444 311.838 422.629 309.858C422.813 307.879 425.75 307.579 425.75 307.579L442.224 292.69L485.507 290.903C485.507 290.903 503.823 249.705 473.565 223L410.872 224.787Z" fill="#2F2E41"/>
<path d="M442 282L456.597 435L478.097 433.855L486 291.386L442 282Z" fill="#2F2E41"/>
<path d="M443.361 83.8957L467.634 82.6453L478.908 100.46C478.908 100.46 500.121 104.007 498.651 129.004C497.18 154 472.841 175.935 472.841 175.935L473.881 188.953L472.074 194.116L472.306 197.015L474.771 200.085L475.025 203.26L472.841 208.284L473.724 215C473.724 215 451.762 219.36 440.243 210.68C428.724 202 411.724 207 411.724 207L411.084 198.727L414.415 194.26L412.554 188.434L415.352 182.83L416.81 165.03C416.81 165.03 400.853 141.057 419.171 123.001L426.523 110.502L434.75 100.466L443.361 83.8957Z" fill="#519EE6"/>
<path d="M502.882 192.305L501.096 129.59C501.012 126.933 499.888 124.416 497.964 122.581C496.041 120.746 493.474 119.741 490.816 119.783C489.441 119.804 488.085 120.106 486.83 120.669C485.575 121.231 484.449 122.044 483.518 123.056C482.588 124.068 481.873 125.26 481.418 126.557C480.963 127.855 480.777 129.232 480.871 130.604L484.724 195.692L485.398 235.34C483.739 236.075 482.345 237.302 481.408 238.856C480.471 240.41 480.034 242.214 480.158 244.025C480.282 245.835 480.961 247.563 482.101 248.975C483.241 250.386 484.789 251.412 486.533 251.914C488.277 252.415 490.133 252.368 491.849 251.778C493.565 251.188 495.057 250.084 496.124 248.615C497.191 247.147 497.779 245.387 497.811 243.572C497.842 241.758 497.313 239.978 496.298 238.474L502.882 192.305Z" fill="#FFB6B6"/>
<path d="M507.223 142.205C507.681 141.739 507.974 141.136 508.057 140.487C508.139 139.838 508.007 139.181 507.679 138.615C507.288 137.909 507.128 137.098 507.219 136.296C507.239 136.142 507.269 135.988 507.308 135.837C507.569 134.934 507.608 133.981 507.422 133.059C507.236 132.137 506.83 131.274 506.239 130.542C504.258 128.163 503.302 124.562 502.888 121.352C502.435 117.838 502.166 114.248 500.885 110.946C499.037 106.182 494.623 101.936 488.597 103.968C486.048 104.872 483.888 106.627 482.481 108.938C479.477 113.729 479.444 119.523 479.466 125.066L478.385 122.876C478.515 128.929 477.42 134.947 475.168 140.567C476.511 140.306 477.461 142.111 477.027 143.408C476.592 144.706 475.393 145.558 474.364 146.461C473.068 147.599 471.845 149.288 473.061 151.027C473.363 151.434 473.747 151.775 474.187 152.027C474.628 152.28 475.116 152.438 475.621 152.493C485.135 153.73 494.803 152.986 504.016 150.307C506.062 149.711 508.255 148.883 509.32 147.038C510.384 145.192 509.353 142.176 507.223 142.205Z" fill="#519EE6"/>
<path d="M456.725 79C469.427 79 479.725 68.7025 479.725 56C479.725 43.2975 469.427 33 456.725 33C444.022 33 433.725 43.2975 433.725 56C433.725 68.7025 444.022 79 456.725 79Z" fill="#FFB6B6"/>
<path d="M218.315 53.6378C233.127 53.6378 245.134 41.6306 245.134 26.8189C245.134 12.0072 233.127 0 218.315 0C203.503 0 191.496 12.0072 191.496 26.8189C191.496 41.6306 203.503 53.6378 218.315 53.6378Z" fill="#519EE6"/>
<path d="M269.671 103.424H154.777C151.978 103.424 149.294 102.313 147.315 100.333C145.336 98.3544 144.224 95.6701 144.224 92.8712C144.224 90.0723 145.336 87.3881 147.315 85.409C149.294 83.4299 151.978 82.318 154.777 82.318H269.671C271.058 82.3166 272.431 82.5886 273.713 83.1184C274.994 83.6481 276.159 84.4252 277.14 85.4053C278.121 86.3854 278.899 87.5493 279.43 88.8303C279.961 90.1113 280.234 91.4845 280.234 92.8712C280.234 94.258 279.961 95.6311 279.43 96.9121C278.899 98.1932 278.121 99.357 277.14 100.337C276.159 101.317 274.994 102.094 273.713 102.624C272.431 103.154 271.058 103.426 269.671 103.424Z" fill="#519EE6"/>
<path d="M617.814 478.771L362.185 479C361.87 478.999 361.569 478.905 361.347 478.739C361.125 478.573 361 478.348 361 478.114C361 477.88 361.125 477.656 361.347 477.49C361.569 477.324 361.87 477.23 362.185 477.229L617.814 477C618.129 477.001 618.431 477.095 618.653 477.261C618.875 477.427 619 477.652 619 477.886C619 478.12 618.875 478.344 618.653 478.51C618.431 478.676 618.129 478.77 617.814 478.771Z" fill="#CACACA"/>
<path d="M485.725 50.0001V55.0001H465.825C466.027 54.0348 466.027 53.0382 465.826 52.0728C465.624 51.1074 465.226 50.1941 464.655 49.3901C464.638 51.3469 464.151 53.2711 463.235 55.0001C451.728 58.4027 442.07 58.3375 434.155 55.0001C432.98 55.0001 431.853 54.5332 431.022 53.7023C430.191 52.8713 429.725 51.7443 429.725 50.5692C429.725 35.2394 441.808 22.3221 457.135 22.0062C460.861 21.9273 464.565 22.593 468.03 23.9645C471.496 25.3359 474.652 27.3853 477.315 29.9927C479.978 32.6 482.093 35.7127 483.537 39.1483C484.981 42.584 485.725 46.2733 485.725 50.0001Z" fill="#2F2E41"/>
<path d="M221.724 136H181.724C180.663 136 179.646 135.579 178.896 134.828C178.146 134.078 177.724 133.061 177.724 132C177.724 130.939 178.146 129.922 178.896 129.172C179.646 128.421 180.663 128 181.724 128H221.724C222.785 128 223.802 128.421 224.553 129.172C225.303 129.922 225.724 130.939 225.724 132C225.724 133.061 225.303 134.078 224.553 134.828C223.802 135.579 222.785 136 221.724 136Z" fill="#CCCCCC"/>
<path d="M231.724 221.3H191.724C190.663 221.3 189.646 220.879 188.896 220.128C188.146 219.378 187.724 218.361 187.724 217.3C187.724 216.239 188.146 215.222 188.896 214.472C189.646 213.721 190.663 213.3 191.724 213.3H231.724C232.785 213.3 233.802 213.721 234.553 214.472C235.303 215.222 235.724 216.239 235.724 217.3C235.724 218.361 235.303 219.378 234.553 220.128C233.802 220.879 232.785 221.3 231.724 221.3Z" fill="#CCCCCC"/>
<path d="M307.724 158H180.724C179.663 158 178.646 157.579 177.896 156.828C177.146 156.078 176.724 155.061 176.724 154C176.724 152.939 177.146 151.922 177.896 151.172C178.646 150.421 179.663 150 180.724 150H307.724C308.785 150 309.802 150.421 310.553 151.172C311.303 151.922 311.724 152.939 311.724 154C311.724 155.061 311.303 156.078 310.553 156.828C309.802 157.579 308.785 158 307.724 158Z" fill="#CCCCCC"/>
<path d="M134.22 169.819C149.032 169.819 161.039 157.812 161.039 143C161.039 128.188 149.032 116.181 134.22 116.181C119.409 116.181 107.401 128.188 107.401 143C107.401 157.812 119.409 169.819 134.22 169.819Z" fill="#E6E6E6"/>
<path d="M215.443 33.8182V33.6477C215.462 31.839 215.652 30.3996 216.011 29.3295C216.371 28.2595 216.883 27.393 217.545 26.7301C218.208 26.0672 219.004 25.4564 219.932 24.8977C220.491 24.5568 220.992 24.1544 221.438 23.6903C221.883 23.2169 222.233 22.6723 222.489 22.0568C222.754 21.4413 222.886 20.7595 222.886 20.0114C222.886 19.0833 222.669 18.2784 222.233 17.5966C221.797 16.9148 221.215 16.3892 220.486 16.0199C219.757 15.6506 218.947 15.4659 218.057 15.4659C217.28 15.4659 216.532 15.6269 215.812 15.9489C215.093 16.2708 214.491 16.7775 214.009 17.4688C213.526 18.16 213.246 19.0644 213.17 20.1818H209.591C209.667 18.572 210.083 17.1941 210.841 16.0483C211.608 14.9025 212.616 14.0265 213.866 13.4205C215.126 12.8144 216.523 12.5114 218.057 12.5114C219.723 12.5114 221.172 12.8428 222.403 13.5057C223.644 14.1686 224.6 15.0777 225.273 16.233C225.955 17.3883 226.295 18.7045 226.295 20.1818C226.295 21.2235 226.134 22.1657 225.812 23.0085C225.5 23.8513 225.045 24.6042 224.449 25.267C223.862 25.9299 223.152 26.517 222.318 27.0284C221.485 27.5492 220.817 28.0985 220.315 28.6761C219.813 29.2443 219.449 29.9214 219.222 30.7074C218.994 31.4934 218.871 32.4735 218.852 33.6477V33.8182H215.443ZM217.261 42.2273C216.561 42.2273 215.959 41.9763 215.457 41.4744C214.955 40.9725 214.705 40.3712 214.705 39.6705C214.705 38.9697 214.955 38.3684 215.457 37.8665C215.959 37.3646 216.561 37.1136 217.261 37.1136C217.962 37.1136 218.563 37.3646 219.065 37.8665C219.567 38.3684 219.818 38.9697 219.818 39.6705C219.818 40.1345 219.7 40.5606 219.463 40.9489C219.236 41.3371 218.928 41.6496 218.54 41.8864C218.161 42.1136 217.735 42.2273 217.261 42.2273Z" fill="white"/>
</g>
<defs>
<clipPath id="clip0_403_48">
<rect width="618.524" height="508.679" fill="white"/>
</clipPath>
</defs>
</svg>
