<svg width="1142" height="600" viewBox="0 0 1142 600" fill="none" xmlns="http://www.w3.org/2000/svg">
<g clip-path="url(#clip0_528_6)">
<path d="M402.396 59.0006L410.959 72.3834L441.507 57.2392L457.213 52.4371C459.254 51.8132 461.095 50.6647 462.552 49.1064C464.01 47.5481 465.033 45.6345 465.519 43.5569C466.006 41.4793 465.938 39.3105 465.324 37.2671C464.71 35.2237 463.57 33.3774 462.018 31.9126C459.719 29.742 456.666 28.5495 453.504 28.5869C450.343 28.6243 447.319 29.8886 445.072 32.1129L431.892 45.1587L402.396 59.0006Z" fill="#A0616A"/>
<path d="M416.847 71.7597L405.43 53.9158L362.141 72.9608C359.032 74.3284 356.33 76.4761 354.296 79.1955C352.261 81.9149 350.964 85.1138 350.53 88.482C349.995 92.6352 350.796 96.8509 352.818 100.518C354.839 104.185 357.976 107.113 361.774 108.877L430.782 139.91C435.545 142.122 440.984 142.385 445.938 140.641C450.892 138.897 454.968 135.286 457.295 130.578C458.546 128.045 459.251 125.278 459.362 122.456C459.473 119.633 458.989 116.819 457.941 114.196C456.892 111.573 455.303 109.201 453.277 107.232C451.251 105.264 448.834 103.745 446.182 102.773L394.417 84.8533L416.847 71.7597Z" fill="#519EE6"/>
<path d="M873.724 374.684C873.724 369.324 871.924 364.975 869.714 364.965H267.224C265.004 364.975 263.214 369.324 263.204 374.684V595.327C263.204 595.825 263.019 596.305 262.685 596.674C262.35 597.042 261.891 597.273 261.395 597.321C259.778 597.476 258.161 597.621 256.544 597.755C256.504 597.755 256.464 597.764 256.424 597.764C255.544 597.844 254.664 597.904 253.784 597.975H253.774C253.321 597.138 252.874 596.293 252.432 595.442C252.282 595.155 252.204 594.836 252.204 594.513V362.074C252.204 360.594 252.264 359.105 252.364 357.635C252.507 355.616 252.757 353.606 253.114 351.615C254.804 342.325 258.624 336.035 262.964 336.015H873.964C874.598 336.019 875.223 336.151 875.804 336.404C876.657 336.782 877.428 337.322 878.074 337.994C878.951 338.906 879.701 339.932 880.304 341.044C882.444 344.814 883.974 350.434 884.514 356.974C884.514 357.034 884.524 357.094 884.524 357.154C884.664 358.775 884.734 360.424 884.724 362.074L884.864 383.504L884.954 396.284L885.224 436.384L885.324 450.624L885.764 596.824C885.764 597.355 885.553 597.864 885.178 598.239C884.803 598.614 884.295 598.824 883.764 598.824H875.724C875.194 598.824 874.685 598.614 874.31 598.239C873.935 597.864 873.724 597.355 873.724 596.824V374.684Z" fill="#E6E6E6"/>
<path d="M267.479 483.961L254.516 481.633L257.326 430.523L276.459 433.959L267.479 483.961Z" fill="#A0616A"/>
<path d="M265.508 497.566L225.644 490.408L225.734 489.904C226.473 485.788 228.817 482.136 232.249 479.748C235.681 477.361 239.921 476.435 244.036 477.173L244.037 477.173L252.31 472.956L264.905 480.921L268.384 481.545L265.508 497.566Z" fill="#2F2E41"/>
<path d="M581.873 430.015H502.384C500.253 430.012 498.211 429.165 496.705 427.659C495.198 426.152 494.351 424.11 494.349 421.98V349.251C494.351 347.12 495.198 345.078 496.705 343.572C498.211 342.065 500.253 341.218 502.384 341.215H581.873C584.003 341.218 586.046 342.065 587.552 343.572C589.059 345.078 589.906 347.12 589.908 349.251V421.98C589.906 424.11 589.059 426.152 587.552 427.659C586.046 429.165 584.003 430.012 581.873 430.015Z" fill="#3F3D56"/>
<path d="M576.286 423.318H507.971C506.08 423.316 504.266 422.563 502.929 421.226C501.591 419.888 500.839 418.075 500.837 416.184V355.047C500.839 353.155 501.591 351.342 502.929 350.004C504.266 348.667 506.08 347.915 507.971 347.912H576.286C578.177 347.914 579.991 348.667 581.328 350.004C582.666 351.342 583.418 353.155 583.42 355.047V416.184C583.418 418.075 582.666 419.888 581.328 421.226C579.991 422.563 578.177 423.316 576.286 423.318Z" fill="white"/>
<path d="M569.471 365.712H514.786C514.313 365.712 513.86 365.524 513.525 365.189C513.191 364.855 513.003 364.401 513.003 363.928C513.003 363.455 513.191 363.002 513.525 362.667C513.86 362.333 514.313 362.145 514.786 362.145H569.471C569.944 362.145 570.398 362.333 570.732 362.667C571.067 363.002 571.255 363.455 571.255 363.928C571.255 364.401 571.067 364.855 570.732 365.189C570.398 365.524 569.944 365.712 569.471 365.712Z" fill="#519EE6"/>
<path d="M569.47 372.759H514.785C514.312 372.759 513.859 372.571 513.524 372.237C513.19 371.902 513.002 371.448 513.002 370.975C513.002 370.502 513.19 370.049 513.524 369.714C513.859 369.38 514.312 369.192 514.785 369.192H569.47C569.943 369.192 570.397 369.38 570.731 369.714C571.066 370.049 571.254 370.502 571.254 370.975C571.254 371.448 571.066 371.902 570.731 372.237C570.397 372.571 569.943 372.759 569.47 372.759Z" fill="#519EE6"/>
<path d="M538.49 379.806H514.785C514.312 379.806 513.859 379.618 513.524 379.284C513.19 378.949 513.002 378.496 513.002 378.023C513.002 377.55 513.19 377.096 513.524 376.762C513.859 376.427 514.312 376.239 514.785 376.239H538.49C538.963 376.239 539.417 376.427 539.751 376.762C540.086 377.096 540.274 377.55 540.274 378.023C540.274 378.496 540.086 378.949 539.751 379.284C539.417 379.618 538.963 379.806 538.49 379.806Z" fill="#519EE6"/>
<path d="M569.471 394.566H514.786C514.313 394.566 513.86 394.378 513.525 394.044C513.191 393.709 513.003 393.255 513.003 392.782C513.003 392.309 513.191 391.856 513.525 391.521C513.86 391.187 514.313 390.999 514.786 390.999H569.471C569.944 390.999 570.398 391.187 570.732 391.521C571.067 391.856 571.255 392.309 571.255 392.782C571.255 393.255 571.067 393.709 570.732 394.044C570.398 394.378 569.944 394.566 569.471 394.566Z" fill="#E4E4E4"/>
<path d="M569.471 401.613H514.786C514.551 401.614 514.319 401.568 514.102 401.479C513.885 401.389 513.688 401.258 513.522 401.092C513.356 400.927 513.224 400.73 513.134 400.513C513.044 400.297 512.998 400.064 512.998 399.83C512.998 399.595 513.044 399.363 513.134 399.146C513.224 398.929 513.356 398.733 513.522 398.567C513.688 398.401 513.885 398.27 514.102 398.181C514.319 398.091 514.551 398.046 514.786 398.046H569.471C569.944 398.046 570.397 398.234 570.732 398.568C571.066 398.903 571.254 399.357 571.254 399.83C571.254 400.303 571.066 400.756 570.732 401.091C570.397 401.425 569.944 401.613 569.471 401.613Z" fill="#E4E4E4"/>
<path d="M538.49 408.661H514.785C514.312 408.661 513.859 408.473 513.524 408.138C513.19 407.804 513.002 407.35 513.002 406.877C513.002 406.404 513.19 405.95 513.524 405.616C513.859 405.281 514.312 405.093 514.785 405.093H538.49C538.963 405.093 539.417 405.281 539.751 405.616C540.086 405.95 540.274 406.404 540.274 406.877C540.274 407.35 540.086 407.804 539.751 408.138C539.417 408.473 538.963 408.661 538.49 408.661Z" fill="#E4E4E4"/>
<path d="M710.008 235.739H645.088C644.17 235.74 643.29 236.106 642.641 236.756C641.993 237.407 641.629 238.288 641.63 239.206V341.76H713.475V239.206C713.476 238.751 713.386 238.3 713.212 237.879C713.038 237.458 712.782 237.076 712.46 236.754C712.138 236.432 711.756 236.176 711.335 236.002C710.914 235.828 710.463 235.739 710.008 235.739ZM677.766 294.008C675.736 293.999 673.792 293.188 672.356 291.753C670.921 290.317 670.11 288.373 670.101 286.343V274.514C670.103 272.482 670.912 270.535 672.349 269.099C673.786 267.663 675.735 266.857 677.766 266.857C679.798 266.857 681.747 267.663 683.184 269.099C684.621 270.535 685.43 272.482 685.432 274.514V286.343C685.423 288.373 684.612 290.317 683.177 291.753C681.741 293.188 679.797 293.999 677.766 294.008Z" fill="#2F2E41"/>
<path d="M641.407 338.479V348.374C641.408 348.886 641.612 349.378 641.975 349.74C642.337 350.103 642.829 350.307 643.342 350.308H711.764C712.276 350.305 712.767 350.101 713.129 349.739C713.491 349.376 713.696 348.886 713.698 348.374V338.479H641.407Z" fill="#3F3D56"/>
<path d="M817.509 75.6926H540.004C537.62 75.6964 535.334 76.6452 533.648 78.331C531.962 80.0169 531.014 82.3024 531.01 84.6866V271.948C531.012 274.333 531.96 276.619 533.647 278.305C535.333 279.991 537.619 280.94 540.004 280.942H817.509C819.893 280.94 822.18 279.991 823.866 278.305C825.552 276.619 826.501 274.333 826.503 271.948V84.6866C826.499 82.3024 825.55 80.0169 823.864 78.331C822.178 76.6452 819.893 75.6964 817.509 75.6926Z" fill="#3F3D56"/>
<path d="M815.192 82.1888H542.322C541.045 82.1916 539.822 82.7006 538.92 83.6042C538.018 84.5078 537.512 85.7322 537.512 87.0088V269.629C537.514 270.904 538.021 272.126 538.923 273.028C539.824 273.929 541.047 274.437 542.322 274.439H815.192C816.467 274.437 817.689 273.929 818.59 273.028C819.492 272.126 820 270.904 820.002 269.629V87.0088C820.002 85.7322 819.495 84.5078 818.593 83.6042C817.692 82.7006 816.468 82.1916 815.192 82.1888Z" fill="white"/>
<path d="M762.041 353.751H599.698C599.254 353.751 598.815 353.652 598.414 353.461C598.013 353.27 597.659 352.991 597.379 352.646C597.099 352.301 596.9 351.898 596.795 351.466C596.691 351.034 596.684 350.584 596.776 350.15L599.295 338.186C599.438 337.516 599.806 336.916 600.338 336.485C600.869 336.054 601.532 335.817 602.217 335.815H759.523C760.207 335.817 760.87 336.054 761.402 336.485C761.933 336.916 762.301 337.516 762.444 338.186L764.963 350.15C765.055 350.584 765.048 351.034 764.944 351.466C764.84 351.898 764.64 352.301 764.36 352.646C764.08 352.991 763.727 353.27 763.325 353.461C762.924 353.652 762.486 353.751 762.041 353.751Z" fill="#2F2E41"/>
<path d="M607.882 337.969H603.858C603.589 337.969 603.37 338.187 603.37 338.457V340.481C603.37 340.75 603.589 340.969 603.858 340.969H607.882C608.152 340.969 608.37 340.75 608.37 340.481V338.457C608.37 338.187 608.152 337.969 607.882 337.969Z" fill="#3F3D56"/>
<path d="M617.882 337.969H613.858C613.589 337.969 613.37 338.187 613.37 338.457V340.481C613.37 340.75 613.589 340.969 613.858 340.969H617.882C618.152 340.969 618.37 340.75 618.37 340.481V338.457C618.37 338.187 618.152 337.969 617.882 337.969Z" fill="#3F3D56"/>
<path d="M627.882 337.969H623.858C623.589 337.969 623.37 338.187 623.37 338.457V340.481C623.37 340.75 623.589 340.969 623.858 340.969H627.882C628.152 340.969 628.37 340.75 628.37 340.481V338.457C628.37 338.187 628.152 337.969 627.882 337.969Z" fill="#3F3D56"/>
<path d="M637.882 337.969H633.858C633.589 337.969 633.37 338.187 633.37 338.457V340.481C633.37 340.75 633.589 340.969 633.858 340.969H637.882C638.152 340.969 638.37 340.75 638.37 340.481V338.457C638.37 338.187 638.152 337.969 637.882 337.969Z" fill="#3F3D56"/>
<path d="M647.882 337.969H643.858C643.589 337.969 643.37 338.187 643.37 338.457V340.481C643.37 340.75 643.589 340.969 643.858 340.969H647.882C648.152 340.969 648.37 340.75 648.37 340.481V338.457C648.37 338.187 648.152 337.969 647.882 337.969Z" fill="#3F3D56"/>
<path d="M657.882 337.969H653.858C653.589 337.969 653.37 338.187 653.37 338.457V340.481C653.37 340.75 653.589 340.969 653.858 340.969H657.882C658.152 340.969 658.37 340.75 658.37 340.481V338.457C658.37 338.187 658.152 337.969 657.882 337.969Z" fill="#3F3D56"/>
<path d="M667.882 337.969H663.858C663.589 337.969 663.37 338.187 663.37 338.457V340.481C663.37 340.75 663.589 340.969 663.858 340.969H667.882C668.152 340.969 668.37 340.75 668.37 340.481V338.457C668.37 338.187 668.152 337.969 667.882 337.969Z" fill="#3F3D56"/>
<path d="M677.882 337.969H673.858C673.589 337.969 673.37 338.187 673.37 338.457V340.481C673.37 340.75 673.589 340.969 673.858 340.969H677.882C678.152 340.969 678.37 340.75 678.37 340.481V338.457C678.37 338.187 678.152 337.969 677.882 337.969Z" fill="#3F3D56"/>
<path d="M687.882 337.969H683.858C683.589 337.969 683.37 338.187 683.37 338.457V340.481C683.37 340.75 683.589 340.969 683.858 340.969H687.882C688.152 340.969 688.37 340.75 688.37 340.481V338.457C688.37 338.187 688.152 337.969 687.882 337.969Z" fill="#3F3D56"/>
<path d="M697.882 337.969H693.858C693.589 337.969 693.37 338.187 693.37 338.457V340.481C693.37 340.75 693.589 340.969 693.858 340.969H697.882C698.152 340.969 698.37 340.75 698.37 340.481V338.457C698.37 338.187 698.152 337.969 697.882 337.969Z" fill="#3F3D56"/>
<path d="M707.882 337.969H703.858C703.589 337.969 703.37 338.187 703.37 338.457V340.481C703.37 340.75 703.589 340.969 703.858 340.969H707.882C708.152 340.969 708.37 340.75 708.37 340.481V338.457C708.37 338.187 708.152 337.969 707.882 337.969Z" fill="#3F3D56"/>
<path d="M717.882 337.969H713.858C713.589 337.969 713.37 338.187 713.37 338.457V340.481C713.37 340.75 713.589 340.969 713.858 340.969H717.882C718.152 340.969 718.37 340.75 718.37 340.481V338.457C718.37 338.187 718.152 337.969 717.882 337.969Z" fill="#3F3D56"/>
<path d="M727.882 337.969H723.858C723.589 337.969 723.37 338.187 723.37 338.457V340.481C723.37 340.75 723.589 340.969 723.858 340.969H727.882C728.152 340.969 728.37 340.75 728.37 340.481V338.457C728.37 338.187 728.152 337.969 727.882 337.969Z" fill="#3F3D56"/>
<path d="M737.882 337.969H733.858C733.589 337.969 733.37 338.187 733.37 338.457V340.481C733.37 340.75 733.589 340.969 733.858 340.969H737.882C738.152 340.969 738.37 340.75 738.37 340.481V338.457C738.37 338.187 738.152 337.969 737.882 337.969Z" fill="#3F3D56"/>
<path d="M747.882 337.969H743.858C743.589 337.969 743.37 338.187 743.37 338.457V340.481C743.37 340.75 743.589 340.969 743.858 340.969H747.882C748.152 340.969 748.37 340.75 748.37 340.481V338.457C748.37 338.187 748.152 337.969 747.882 337.969Z" fill="#3F3D56"/>
<path d="M757.882 337.969H753.858C753.589 337.969 753.37 338.187 753.37 338.457V340.481C753.37 340.75 753.589 340.969 753.858 340.969H757.882C758.152 340.969 758.37 340.75 758.37 340.481V338.457C758.37 338.187 758.152 337.969 757.882 337.969Z" fill="#3F3D56"/>
<path d="M607.764 342.969H603.74C603.471 342.969 603.252 343.187 603.252 343.457V345.481C603.252 345.75 603.471 345.969 603.74 345.969H607.764C608.033 345.969 608.252 345.75 608.252 345.481V343.457C608.252 343.187 608.033 342.969 607.764 342.969Z" fill="#3F3D56"/>
<path d="M617.764 342.969H613.74C613.471 342.969 613.252 343.187 613.252 343.457V345.481C613.252 345.75 613.471 345.969 613.74 345.969H617.764C618.033 345.969 618.252 345.75 618.252 345.481V343.457C618.252 343.187 618.033 342.969 617.764 342.969Z" fill="#3F3D56"/>
<path d="M627.764 342.969H623.74C623.471 342.969 623.252 343.187 623.252 343.457V345.481C623.252 345.75 623.471 345.969 623.74 345.969H627.764C628.033 345.969 628.252 345.75 628.252 345.481V343.457C628.252 343.187 628.033 342.969 627.764 342.969Z" fill="#3F3D56"/>
<path d="M637.764 342.969H633.74C633.471 342.969 633.252 343.187 633.252 343.457V345.481C633.252 345.75 633.471 345.969 633.74 345.969H637.764C638.033 345.969 638.252 345.75 638.252 345.481V343.457C638.252 343.187 638.033 342.969 637.764 342.969Z" fill="#3F3D56"/>
<path d="M647.764 342.969H643.74C643.471 342.969 643.252 343.187 643.252 343.457V345.481C643.252 345.75 643.471 345.969 643.74 345.969H647.764C648.033 345.969 648.252 345.75 648.252 345.481V343.457C648.252 343.187 648.033 342.969 647.764 342.969Z" fill="#3F3D56"/>
<path d="M657.764 342.969H653.74C653.471 342.969 653.252 343.187 653.252 343.457V345.481C653.252 345.75 653.471 345.969 653.74 345.969H657.764C658.033 345.969 658.252 345.75 658.252 345.481V343.457C658.252 343.187 658.033 342.969 657.764 342.969Z" fill="#3F3D56"/>
<path d="M667.764 342.969H663.74C663.471 342.969 663.252 343.187 663.252 343.457V345.481C663.252 345.75 663.471 345.969 663.74 345.969H667.764C668.033 345.969 668.252 345.75 668.252 345.481V343.457C668.252 343.187 668.033 342.969 667.764 342.969Z" fill="#3F3D56"/>
<path d="M677.764 342.969H673.74C673.471 342.969 673.252 343.187 673.252 343.457V345.481C673.252 345.75 673.471 345.969 673.74 345.969H677.764C678.033 345.969 678.252 345.75 678.252 345.481V343.457C678.252 343.187 678.033 342.969 677.764 342.969Z" fill="#3F3D56"/>
<path d="M687.764 342.969H683.74C683.47 342.969 683.252 343.187 683.252 343.457V345.481C683.252 345.75 683.47 345.969 683.74 345.969H687.764C688.033 345.969 688.252 345.75 688.252 345.481V343.457C688.252 343.187 688.033 342.969 687.764 342.969Z" fill="#3F3D56"/>
<path d="M697.764 342.969H693.74C693.47 342.969 693.252 343.187 693.252 343.457V345.481C693.252 345.75 693.47 345.969 693.74 345.969H697.764C698.033 345.969 698.252 345.75 698.252 345.481V343.457C698.252 343.187 698.033 342.969 697.764 342.969Z" fill="#3F3D56"/>
<path d="M707.764 342.969H703.74C703.47 342.969 703.252 343.187 703.252 343.457V345.481C703.252 345.75 703.47 345.969 703.74 345.969H707.764C708.033 345.969 708.252 345.75 708.252 345.481V343.457C708.252 343.187 708.033 342.969 707.764 342.969Z" fill="#3F3D56"/>
<path d="M717.764 342.969H713.74C713.47 342.969 713.252 343.187 713.252 343.457V345.481C713.252 345.75 713.47 345.969 713.74 345.969H717.764C718.033 345.969 718.252 345.75 718.252 345.481V343.457C718.252 343.187 718.033 342.969 717.764 342.969Z" fill="#3F3D56"/>
<path d="M727.764 342.969H723.74C723.47 342.969 723.252 343.187 723.252 343.457V345.481C723.252 345.75 723.47 345.969 723.74 345.969H727.764C728.033 345.969 728.252 345.75 728.252 345.481V343.457C728.252 343.187 728.033 342.969 727.764 342.969Z" fill="#3F3D56"/>
<path d="M737.764 342.969H733.74C733.47 342.969 733.252 343.187 733.252 343.457V345.481C733.252 345.75 733.47 345.969 733.74 345.969H737.764C738.033 345.969 738.252 345.75 738.252 345.481V343.457C738.252 343.187 738.033 342.969 737.764 342.969Z" fill="#3F3D56"/>
<path d="M747.764 342.969H743.74C743.47 342.969 743.252 343.187 743.252 343.457V345.481C743.252 345.75 743.47 345.969 743.74 345.969H747.764C748.033 345.969 748.252 345.75 748.252 345.481V343.457C748.252 343.187 748.033 342.969 747.764 342.969Z" fill="#3F3D56"/>
<path d="M757.764 342.969H753.74C753.47 342.969 753.252 343.187 753.252 343.457V345.481C753.252 345.75 753.47 345.969 753.74 345.969H757.764C758.033 345.969 758.252 345.75 758.252 345.481V343.457C758.252 343.187 758.033 342.969 757.764 342.969Z" fill="#3F3D56"/>
<path d="M690.764 348.969H651.74C651.471 348.969 651.252 349.187 651.252 349.457V351.481C651.252 351.75 651.471 351.969 651.74 351.969H690.764C691.033 351.969 691.252 351.75 691.252 351.481V349.457C691.252 349.187 691.033 348.969 690.764 348.969Z" fill="#3F3D56"/>
<path d="M796.399 581.986L788.689 569.596L787.149 576.677C786.879 577.917 786.609 579.177 786.359 580.427C784.169 578.556 781.839 576.826 779.56 575.167C772.56 570.086 765.563 565 758.569 559.906L760.759 572.606C762.109 580.427 763.52 588.407 766.859 595.556C767.229 596.367 767.629 597.167 768.06 597.947H800.6C800.861 597.222 801.042 596.471 801.14 595.706C801.148 595.657 801.151 595.607 801.149 595.556C801.66 590.706 798.979 586.136 796.399 581.986Z" fill="#F0F0F0"/>
<path d="M356.399 581.986L348.689 569.596L347.149 576.677C346.879 577.917 346.609 579.177 346.359 580.427C344.169 578.556 341.839 576.826 339.56 575.167C332.56 570.086 325.563 565 318.569 559.906L320.759 572.606C322.109 580.427 323.52 588.407 326.859 595.556C327.229 596.367 327.629 597.167 328.06 597.947H360.6C360.861 597.222 361.042 596.471 361.14 595.706C361.148 595.657 361.151 595.607 361.149 595.556C361.66 590.706 358.979 586.136 356.399 581.986Z" fill="#F0F0F0"/>
<path d="M974.941 599.301L699.191 599.609C698.875 599.609 698.572 599.483 698.349 599.26C698.125 599.037 698 598.734 698 598.418C698 598.102 698.125 597.799 698.349 597.576C698.572 597.353 698.875 597.227 699.191 597.227L974.941 596.92C975.256 596.92 975.559 597.046 975.783 597.269C976.006 597.492 976.131 597.795 976.131 598.111C976.131 598.427 976.006 598.729 975.783 598.953C975.559 599.176 975.256 599.301 974.941 599.301Z" fill="#CACACA"/>
<path d="M801.476 107.35H546.152C545.887 107.344 545.634 107.234 545.449 107.045C545.263 106.855 545.159 106.6 545.159 106.334C545.159 106.069 545.263 105.814 545.449 105.624C545.634 105.435 545.887 105.325 546.152 105.319H801.476C801.741 105.325 801.994 105.435 802.179 105.624C802.365 105.814 802.469 106.069 802.469 106.334C802.469 106.6 802.365 106.855 802.179 107.045C801.994 107.234 801.741 107.344 801.476 107.35Z" fill="#CACACA"/>
<path d="M563.532 100.135C566.819 100.135 569.483 97.4114 569.483 94.0519C569.483 90.6923 566.819 87.9688 563.532 87.9688C560.246 87.9688 557.582 90.6923 557.582 94.0519C557.582 97.4114 560.246 100.135 563.532 100.135Z" fill="#3F3D56"/>
<path d="M584.088 100.135C587.374 100.135 590.039 97.4114 590.039 94.0519C590.039 90.6923 587.374 87.9688 584.088 87.9688C580.802 87.9688 578.138 90.6923 578.138 94.0519C578.138 97.4114 580.802 100.135 584.088 100.135Z" fill="#3F3D56"/>
<path d="M604.644 100.135C607.93 100.135 610.594 97.4114 610.594 94.0519C610.594 90.6923 607.93 87.9688 604.644 87.9688C601.357 87.9688 598.693 90.6923 598.693 94.0519C598.693 97.4114 601.357 100.135 604.644 100.135Z" fill="#3F3D56"/>
<path d="M789.099 89.4766H774.497C774.207 89.4823 773.932 89.6014 773.729 89.8081C773.527 90.0148 773.413 90.2927 773.413 90.5822C773.413 90.8717 773.527 91.1496 773.729 91.3563C773.932 91.563 774.207 91.682 774.497 91.6878H789.099C789.388 91.682 789.664 91.563 789.866 91.3563C790.069 91.1496 790.183 90.8717 790.183 90.5822C790.183 90.2927 790.069 90.0148 789.866 89.8081C789.664 89.6014 789.388 89.4823 789.099 89.4766Z" fill="#3F3D56"/>
<path d="M789.099 93.6268H774.497C774.207 93.6325 773.932 93.7516 773.729 93.9583C773.527 94.165 773.413 94.4429 773.413 94.7324C773.413 95.0219 773.527 95.2998 773.729 95.5065C773.932 95.7132 774.207 95.8323 774.497 95.838H789.099C789.388 95.8323 789.664 95.7132 789.866 95.5065C790.069 95.2998 790.183 95.0219 790.183 94.7324C790.183 94.4429 790.069 94.165 789.866 93.9583C789.664 93.7516 789.388 93.6325 789.099 93.6268Z" fill="#3F3D56"/>
<path d="M789.099 97.7715H774.497C774.207 97.7773 773.932 97.8963 773.729 98.103C773.527 98.3097 773.413 98.5877 773.413 98.8771C773.413 99.1666 773.527 99.4445 773.729 99.6513C773.932 99.858 774.207 99.977 774.497 99.9828H789.099C789.388 99.977 789.664 99.858 789.866 99.6513C790.069 99.4445 790.183 99.1666 790.183 98.8771C790.183 98.5877 790.069 98.3097 789.866 98.103C789.664 97.8963 789.388 97.7773 789.099 97.7715Z" fill="#3F3D56"/>
<path d="M694.428 162.668H662.525C660.128 162.668 658.186 164.61 658.186 167.007C658.186 169.403 660.128 171.346 662.525 171.346H694.428C696.825 171.346 698.767 169.403 698.767 167.007C698.767 164.61 696.825 162.668 694.428 162.668Z" fill="#519EE6"/>
<path d="M715.038 180.024H641.914C639.518 180.024 637.575 181.966 637.575 184.363C637.575 186.759 639.518 188.702 641.914 188.702H715.038C717.435 188.702 719.377 186.759 719.377 184.363C719.377 181.966 717.435 180.024 715.038 180.024Z" fill="#E6E6E6"/>
<path d="M715.038 197.379H641.914C639.518 197.379 637.575 199.322 637.575 201.718C637.575 204.115 639.518 206.057 641.914 206.057H715.038C717.435 206.057 719.377 204.115 719.377 201.718C719.377 199.322 717.435 197.379 715.038 197.379Z" fill="#E6E6E6"/>
<path d="M572.252 263.969C572.258 267.543 571.621 271.09 570.372 274.439H542.322C541.047 274.437 539.824 273.929 538.923 273.028C538.021 272.126 537.514 270.904 537.512 269.629V234.349C539.079 234.095 540.664 233.968 542.252 233.969C546.191 233.969 550.093 234.744 553.732 236.252C557.372 237.76 560.68 239.969 563.465 242.755C566.251 245.541 568.461 248.848 569.969 252.488C571.476 256.128 572.252 260.029 572.252 263.969Z" fill="#E6E6E6"/>
<path d="M516.908 291.862C516.488 304.012 490.648 336.792 477.058 341.492C474.748 342.292 473.398 342.732 473.398 342.732L468.668 341.302L411.388 323.972C401.358 329.872 371.438 332.872 346.888 334.372C327.348 335.562 311.198 335.802 311.198 335.802C305.434 379.643 294.073 421.58 274.908 460.862L251.908 456.862L273.637 310.542C274.106 307.382 275.493 304.43 277.626 302.052C279.759 299.674 282.544 297.976 285.635 297.167L441.938 256.282C441.938 256.282 450.558 254.722 468.738 263.492C498.668 277.932 517.208 283.022 516.908 291.862Z" fill="#2F2E41"/>
<path d="M463.161 567.951L451.481 574.036L422.449 531.879L439.689 522.897L463.161 567.951Z" fill="#A0616A"/>
<path d="M469.922 579.922L434.003 598.636L433.766 598.182C431.834 594.474 431.455 590.15 432.71 586.163C433.966 582.175 436.754 578.849 440.462 576.917L444.43 568.52L459.265 567.12L462.401 565.486L469.922 579.922Z" fill="#2F2E41"/>
<path d="M487.041 289.511C492.283 300.48 484.515 341.491 474.635 351.939L472.012 353.723L471.126 354.185C465.199 374.233 401.596 432.869 401.596 432.869C423.08 460.237 436.47 493.886 445.012 531.296L425.927 540.113L356.001 435.723C354.169 432.989 353.208 429.764 353.244 426.473C353.28 423.182 354.311 419.98 356.202 417.286L384.729 376.651L431.213 286.611C464.429 285.587 483.222 281.533 487.041 289.511Z" fill="#2F2E41"/>
<path d="M515.301 296.129C414.908 280.862 405.761 267.132 404.78 267.377L403.908 267.593L418.453 243.009L423.788 236.707L419.685 233.774L421.313 221.59C422.583 216.655 423.611 210.842 423.063 210.063C421.931 208.811 419.413 206.533 419.388 206.51L419.064 206.218L422.845 197.396L427.908 126.862L440.963 100.836L467.908 84.8621L491.658 85.1496L512.53 104.509C521.392 108.772 528.599 115.839 533.035 124.615C537.47 133.391 538.887 143.385 537.064 153.047L526.462 209.046L522.562 237.909L528.926 244.272L524.966 248.232L522.612 261.716L525.023 276.987C526.908 290.862 518.527 291.689 517.908 291.862C517.871 291.873 516.051 296.639 515.974 296.639C515.781 296.639 515.765 296.2 515.301 296.129Z" fill="#519EE6"/>
<path d="M510.03 351.804C511.177 350.684 512.064 349.327 512.629 347.827C513.194 346.328 513.423 344.722 513.301 343.124C513.178 341.526 512.707 339.975 511.92 338.579C511.133 337.183 510.049 335.976 508.745 335.044L519.758 297.678L500.397 303.59L492.908 338.168C491.487 340.462 490.958 343.197 491.419 345.855C491.881 348.514 493.302 350.91 495.412 352.591C497.523 354.272 500.177 355.121 502.871 354.975C505.565 354.83 508.113 353.702 510.03 351.804Z" fill="#A0616A"/>
<path d="M511.818 325.877L490.891 316.49L507.678 246.78L476.416 170.894C474.871 167.143 474.171 163.097 474.365 159.045C474.559 154.993 475.642 151.033 477.539 147.447C479.435 143.861 482.098 140.736 485.338 138.294C488.578 135.853 492.316 134.155 496.286 133.32C503.459 131.821 510.933 133.228 517.069 137.233C523.205 141.238 527.502 147.514 529.017 154.683L548.029 245.15L511.818 325.877Z" fill="#519EE6"/>
<path d="M429.188 59.5938L436.838 27.7803C437.101 26.6921 437.784 25.7526 438.739 25.1681C439.694 24.5835 440.842 24.4015 441.93 24.662L448.864 26.3291C449.952 26.592 450.891 27.2759 451.476 28.2306C452.061 29.1853 452.243 30.3329 451.982 31.4216L444.333 63.2352C444.07 64.3234 443.386 65.2628 442.431 65.8474C441.477 66.432 440.329 66.614 439.24 66.3535L432.307 64.6863C431.218 64.4234 430.279 63.7396 429.694 62.7849C429.11 61.8302 428.928 60.6825 429.188 59.5938Z" fill="#3F3D56"/>
<path d="M442.352 26.4797C441.765 26.3393 441.147 26.4374 440.632 26.7524C440.118 27.0675 439.749 27.5737 439.607 28.1601L431.958 59.9736C431.818 60.5603 431.916 61.1788 432.231 61.6932C432.546 62.2077 433.052 62.5762 433.638 62.7179L440.572 64.385C441.159 64.5254 441.777 64.4273 442.292 64.1123C442.806 63.7973 443.175 63.2911 443.316 62.7047L450.966 30.8911C451.106 30.3044 451.008 29.686 450.693 29.1715C450.378 28.657 449.872 28.2885 449.285 28.1468L442.352 26.4797Z" fill="#519EE6"/>
<path d="M474.432 79.6564C493.186 79.6564 508.39 64.4531 508.39 45.6989C508.39 26.9447 493.186 11.7414 474.432 11.7414C455.678 11.7414 440.475 26.9447 440.475 45.6989C440.475 64.4531 455.678 79.6564 474.432 79.6564Z" fill="#A0616A"/>
<path d="M490.094 68.4042L491.317 61.5263C492.069 56.9652 491.288 52.2835 489.096 48.2134C486.905 44.1432 483.426 40.914 479.205 39.0307L478.156 38.5233L479.02 38.0614C479.295 37.9145 479.51 37.676 479.627 37.3873C479.744 37.0986 479.757 36.7779 479.662 36.4809C479.568 36.1839 479.373 35.9293 479.11 35.7612C478.848 35.5932 478.535 35.5223 478.226 35.5609L477.244 35.683C476.575 35.7649 475.897 35.6516 475.291 35.3567C474.685 35.0618 474.177 34.598 473.829 34.0211C473.48 33.4442 473.306 32.7788 473.327 32.1052C473.348 31.4316 473.564 30.7784 473.948 30.2245C470.558 31.6291 466.941 32.4069 463.273 32.5199C457.965 32.4799 453.353 29.8925 451.523 25.9276C451.078 24.9419 450.804 23.8874 450.713 22.8095C445.106 25.019 442.083 31.642 442.051 31.7113L440.394 35.4105L441.103 31.4193C441.125 31.2978 443.295 19.2099 446.441 11.7103C449.825 3.64686 463.909 -0.603138 485.066 0.0692218C505.731 0.718632 510.316 24.2811 510.709 26.5609C516.581 32.2099 514.447 42.9052 512.642 48.8041C509.717 58.3573 503.947 67.8632 500.767 68.3637C500.482 68.4171 500.188 68.3851 499.922 68.2718C499.655 68.1584 499.428 67.9686 499.27 67.7264C498.951 67.2203 498.529 66.7876 498.031 66.4569C497.533 66.1262 496.97 65.905 496.38 65.808C493.811 65.4428 491.159 67.5492 491.133 67.5702L490.094 68.4042Z" fill="#2F2E41"/>
<path d="M442.941 599.301L167.191 599.609C166.876 599.608 166.574 599.482 166.351 599.259C166.129 599.036 166.004 598.733 166.004 598.418C166.004 598.103 166.129 597.801 166.351 597.577C166.574 597.354 166.876 597.228 167.191 597.227L442.941 596.92C443.257 596.92 443.56 597.046 443.783 597.269C444.006 597.492 444.132 597.795 444.132 598.111C444.132 598.427 444.006 598.729 443.783 598.953C443.56 599.176 443.257 599.301 442.941 599.301Z" fill="#CACACA"/>
<g filter="url(#filter0_i_528_6)">
<rect x="903" y="164" width="107" height="288" rx="6" fill="#D9D9D9"/>
</g>
<rect x="1037.5" y="121.5" width="102" height="283" rx="3.5" fill="#519EE6" fill-opacity="0.3" stroke="#519EE6" stroke-width="5" stroke-dasharray="10 10"/>
<g filter="url(#filter1_i_528_6)">
<rect width="107" height="288" rx="6" transform="matrix(-1 0 0 1 239 164)" fill="#D9D9D9"/>
</g>
<rect x="-2.5" y="2.5" width="102" height="283" rx="3.5" transform="matrix(-1 0 0 1 102 119)" fill="#519EE6" fill-opacity="0.3" stroke="#519EE6" stroke-width="5" stroke-dasharray="10 10"/>
</g>
<defs>
<filter id="filter0_i_528_6" x="903" y="164" width="107" height="292" filterUnits="userSpaceOnUse" color-interpolation-filters="sRGB">
<feFlood flood-opacity="0" result="BackgroundImageFix"/>
<feBlend mode="normal" in="SourceGraphic" in2="BackgroundImageFix" result="shape"/>
<feColorMatrix in="SourceAlpha" type="matrix" values="0 0 0 0 0 0 0 0 0 0 0 0 0 0 0 0 0 0 127 0" result="hardAlpha"/>
<feMorphology radius="6" operator="erode" in="SourceAlpha" result="effect1_innerShadow_528_6"/>
<feOffset dy="4"/>
<feGaussianBlur stdDeviation="7.5"/>
<feComposite in2="hardAlpha" operator="arithmetic" k2="-1" k3="1"/>
<feColorMatrix type="matrix" values="0 0 0 0 0 0 0 0 0 0 0 0 0 0 0 0 0 0 0.25 0"/>
<feBlend mode="normal" in2="shape" result="effect1_innerShadow_528_6"/>
</filter>
<filter id="filter1_i_528_6" x="132" y="164" width="107" height="292" filterUnits="userSpaceOnUse" color-interpolation-filters="sRGB">
<feFlood flood-opacity="0" result="BackgroundImageFix"/>
<feBlend mode="normal" in="SourceGraphic" in2="BackgroundImageFix" result="shape"/>
<feColorMatrix in="SourceAlpha" type="matrix" values="0 0 0 0 0 0 0 0 0 0 0 0 0 0 0 0 0 0 127 0" result="hardAlpha"/>
<feMorphology radius="6" operator="erode" in="SourceAlpha" result="effect1_innerShadow_528_6"/>
<feOffset dy="4"/>
<feGaussianBlur stdDeviation="7.5"/>
<feComposite in2="hardAlpha" operator="arithmetic" k2="-1" k3="1"/>
<feColorMatrix type="matrix" values="0 0 0 0 0 0 0 0 0 0 0 0 0 0 0 0 0 0 0.25 0"/>
<feBlend mode="normal" in2="shape" result="effect1_innerShadow_528_6"/>
</filter>
<clipPath id="clip0_528_6">
<rect width="1142" height="600" fill="white"/>
</clipPath>
</defs>
</svg>
