<svg width="838" height="673" viewBox="0 0 838 673" fill="none" xmlns="http://www.w3.org/2000/svg">
<path d="M744.049 63.217C707.848 24.7819 658.013 2.0834 605.255 0V202.011L744.049 63.217Z" fill="#3F3D56"/>
<path d="M744.049 88.37L605.255 227.164H799.223C799.292 175.539 779.542 125.858 744.049 88.37Z" fill="#E4E4E4"/>
<path d="M799.43 241.68C799.438 254.271 798.273 266.835 795.95 279.21C795.77 280.19 795.58 281.16 795.38 282.13C791 303.716 783.094 324.434 771.98 343.45C771.39 344.47 770.78 345.49 770.17 346.49V346.5C759.216 364.524 745.518 380.728 729.57 394.53C728.78 395.22 727.99 395.9 727.19 396.57C692.917 425.405 650.007 441.986 605.25 443.69V241.68H799.43Z" fill="#F0F0F0"/>
<path d="M585.632 443.866C588.317 443.866 590.986 443.798 593.646 443.694V241.675L446.729 388.591C484.229 424.147 533.956 443.935 585.632 443.866Z" fill="#CACACA"/>
<path d="M585.906 24.9728C474.239 24.9728 383.715 115.497 383.715 227.164H594.13V25.153C591.401 25.0438 588.662 24.9728 585.906 24.9728Z" fill="#519EE6"/>
<path d="M537.67 241.68L495.16 284.19L493.77 285.58L493.74 285.61L456.67 322.67L455.26 324.08L415.21 364.13L413.8 365.54V365.55L390.75 388.59C370.736 369.716 354.796 346.946 343.911 321.681C333.027 296.415 327.428 269.19 327.46 241.68H537.67Z" fill="#519EE6"/>
<path d="M207.872 425.697C209.418 424.758 210.741 423.492 211.745 421.987C212.75 420.482 213.412 418.776 213.686 416.987C213.959 415.199 213.837 413.372 213.329 411.636C212.82 409.9 211.937 408.296 210.741 406.938L212.409 316.001L192.48 317.671L192.527 406.326C190.379 408.485 189.097 411.358 188.926 414.399C188.754 417.44 189.704 420.439 191.595 422.827C193.487 425.214 196.188 426.825 199.188 427.354C202.188 427.883 205.278 427.293 207.872 425.697Z" fill="#FFB6B6"/>
<path d="M215.551 338.261L189.487 335.776C188.745 335.705 188.028 335.476 187.383 335.103C186.738 334.73 186.181 334.222 185.75 333.614C185.319 333.006 185.024 332.313 184.886 331.581C184.747 330.849 184.767 330.096 184.946 329.373L191.205 304.031C191.588 300.239 193.46 296.753 196.409 294.339C199.358 291.924 203.145 290.778 206.938 291.151C210.731 291.524 214.222 293.386 216.644 296.328C219.067 299.271 220.224 303.054 219.861 306.848L221.22 332.831C221.259 333.575 221.137 334.319 220.862 335.011C220.588 335.704 220.167 336.329 219.629 336.845C219.091 337.36 218.448 337.753 217.745 337.998C217.041 338.242 216.293 338.332 215.551 338.261Z" fill="#E4E4E4"/>
<path d="M172.201 662.293H182.314L187.125 623.284L172.199 623.285L172.201 662.293Z" fill="#FFB6B6"/>
<path d="M169.621 658.991L189.538 658.99C192.904 658.991 196.133 660.328 198.513 662.708C200.894 665.088 202.231 668.317 202.231 671.683V672.095L169.622 672.096L169.621 658.991Z" fill="#2F2E41"/>
<path d="M265.416 662.293H275.53L280.341 623.284L265.415 623.285L265.416 662.293Z" fill="#FFB6B6"/>
<path d="M262.836 658.991L282.753 658.99C286.119 658.991 289.349 660.328 291.729 662.708C294.109 665.088 295.446 668.317 295.447 671.683V672.095L262.837 672.096L262.836 658.991Z" fill="#2F2E41"/>
<path d="M253.206 348.908L259.805 390.979L197.111 391.804L205.36 351.383L253.206 348.908Z" fill="#FFB6B6"/>
<path d="M257.985 380.706C277.878 415.358 279.576 532.855 280.428 654.212H263.517L223.096 477.182L185.975 649.59H169.477L181.025 455.735C181.025 455.735 177.62 416.826 195.049 393.866L199.291 381.609L257.985 380.706Z" fill="#2F2E41"/>
<path d="M207.511 372.143C207.145 372.143 206.78 372.107 206.421 372.036C205.214 371.794 204.119 371.164 203.304 370.242C202.488 369.32 201.997 368.156 201.905 366.928C201.285 358.437 198.213 343.658 192.773 323C190.936 315.978 191.343 308.559 193.936 301.78C196.529 295.002 201.178 289.205 207.231 285.202C213.285 281.199 220.439 279.19 227.691 279.458C234.944 279.726 241.931 282.256 247.672 286.695C251.349 289.511 254.417 293.042 256.693 297.075C258.968 301.109 260.404 305.561 260.913 310.164C263.617 333.974 258.52 357.879 256.203 367.052C255.899 368.249 255.21 369.313 254.243 370.082C253.276 370.851 252.083 371.281 250.848 371.308L207.632 372.142C207.591 372.143 207.552 372.143 207.511 372.143Z" fill="#E4E4E4"/>
<path d="M328.25 295.763C327.99 296.345 327.777 296.947 327.612 297.563L273.517 315.945L263.065 306.813L247.222 320.787L264.155 338.751C265.523 340.202 267.325 341.17 269.29 341.51C271.255 341.85 273.278 341.544 275.054 340.637L332.938 311.069C335.032 312.353 337.466 312.97 339.918 312.836C342.37 312.703 344.724 311.826 346.665 310.323C348.607 308.819 350.045 306.76 350.788 304.419C351.531 302.079 351.543 299.567 350.824 297.219C350.105 294.871 348.688 292.798 346.761 291.275C344.835 289.752 342.49 288.851 340.04 288.693C337.589 288.535 335.148 289.127 333.042 290.39C330.936 291.653 329.265 293.527 328.25 295.763Z" fill="#FFB6B6"/>
<path d="M271.631 316.949L251.912 334.173C251.35 334.663 250.69 335.027 249.976 335.239C249.262 335.451 248.51 335.506 247.773 335.401C247.035 335.297 246.329 335.034 245.702 334.632C245.075 334.23 244.542 333.697 244.139 333.07L230.034 311.106C227.543 308.221 226.298 304.466 226.571 300.664C226.844 296.862 228.614 293.324 231.492 290.825C234.37 288.326 238.122 287.07 241.924 287.333C245.727 287.596 249.27 289.356 251.777 292.228L271.584 309.1C272.151 309.583 272.607 310.183 272.921 310.858C273.236 311.533 273.401 312.269 273.405 313.014C273.41 313.759 273.253 314.496 272.947 315.175C272.641 315.854 272.192 316.459 271.631 316.949Z" fill="#E4E4E4"/>
<path d="M245.144 260.305C252.166 247.459 247.445 231.353 234.599 224.331C221.753 217.308 205.647 222.029 198.625 234.875C191.603 247.721 196.324 263.828 209.17 270.85C222.016 277.872 238.122 273.151 245.144 260.305Z" fill="#FFB6B6"/>
<path d="M229.182 210.9H223.806C221.226 210.092 218.538 209.683 215.835 209.686C215.389 209.686 214.946 209.697 214.506 209.719C209.481 210.035 204.675 211.896 200.746 215.045C196.818 218.195 193.957 222.481 192.555 227.317C186.545 247.38 189.141 269.578 189.141 269.578C197.913 273.546 211.321 276.482 231.123 274.068L234.035 261.861L233.792 273.704C236.584 273.315 239.496 272.814 242.529 272.199V246.088H254.663C254.663 226.649 248.62 210.9 229.182 210.9Z" fill="#2F2E41"/>
<path d="M778.48 496C787.317 496 794.48 488.837 794.48 480C794.48 471.163 787.317 464 778.48 464C769.643 464 762.48 471.163 762.48 480C762.48 488.837 769.643 496 778.48 496Z" fill="#F0F0F0"/>
<path d="M389.48 45C398.317 45 405.48 37.8366 405.48 29C405.48 20.1634 398.317 13 389.48 13C380.643 13 373.48 20.1634 373.48 29C373.48 37.8366 380.643 45 389.48 45Z" fill="#F0F0F0"/>
<path d="M413.8 365.548C380.625 332.693 361.24 288.415 359.602 241.752L363.599 241.608C365.202 287.256 384.166 330.571 416.62 362.711L413.8 365.548Z" fill="#3F3D56"/>
<path d="M456.71 322.71L453.81 325.45C431.71 302.114 416.112 273.393 408.57 242.15L410.51 241.68H412.57C419.987 272.048 435.186 299.961 456.67 322.67L456.71 322.71Z" fill="#3F3D56"/>
<path d="M495.27 284.33L493.77 285.58L493.74 285.61L492.2 286.89C480.98 273.469 471.733 258.515 464.74 242.48L466.57 241.68H468.76C475.533 257.013 484.419 271.321 495.16 284.19C495.194 284.239 495.23 284.286 495.27 284.33Z" fill="#3F3D56"/>
</svg>
