<svg width="966" height="502" viewBox="0 0 966 502" fill="none" xmlns="http://www.w3.org/2000/svg">
<g clip-path="url(#clip0_411_264)">
<g filter="url(#filter0_i_411_264)">
<rect x="727" y="47" width="107" height="288" rx="6" fill="#D9D9D9"/>
</g>
<rect x="861.5" y="4.5" width="102" height="283" rx="3.5" fill="#519EE6" fill-opacity="0.3" stroke="#519EE6" stroke-width="5" stroke-dasharray="10 10"/>
<g filter="url(#filter1_i_411_264)">
<rect width="107" height="288" rx="6" transform="matrix(-1 0 0 1 239 45)" fill="#D9D9D9"/>
</g>
<rect x="-2.5" y="2.5" width="102" height="283" rx="3.5" transform="matrix(-1 0 0 1 102 0)" fill="#519EE6" fill-opacity="0.3" stroke="#519EE6" stroke-width="5" stroke-dasharray="10 10"/>
<path d="M900.057 502H675.057C674.791 502 674.537 501.895 674.35 501.707C674.162 501.52 674.057 501.265 674.057 501C674.057 500.735 674.162 500.48 674.35 500.293C674.537 500.105 674.791 500 675.057 500H900.057C900.322 500 900.576 500.105 900.764 500.293C900.951 500.48 901.057 500.735 901.057 501C901.057 501.265 900.951 501.52 900.764 501.707C900.576 501.895 900.322 502 900.057 502Z" fill="#CCCCCC"/>
<path d="M778.917 197.247C792.482 197.247 803.478 186.25 803.478 172.686C803.478 159.121 792.482 148.125 778.917 148.125C765.352 148.125 754.356 159.121 754.356 172.686C754.356 186.25 765.352 197.247 778.917 197.247Z" fill="#FFB8B8"/>
<path d="M781.465 464.343L769.857 468.285L749.124 425.386L766.257 419.567L781.465 464.343Z" fill="#FFB8B8"/>
<path d="M760.439 467.785L782.826 460.181L787.614 474.277L751.131 486.669C750.502 484.818 750.244 482.861 750.371 480.91C750.499 478.959 751.009 477.053 751.874 475.299C752.738 473.546 753.939 471.979 755.409 470.69C756.879 469.401 758.588 468.414 760.439 467.785Z" fill="#2F2E41"/>
<path d="M807.694 488.575L795.45 489.19L787.249 442.255L805.321 441.346L807.694 488.575Z" fill="#FFB8B8"/>
<path d="M786.528 486.131L810.142 484.944L810.89 499.812L772.407 501.746C772.309 499.794 772.597 497.841 773.253 496C773.91 494.158 774.923 492.464 776.234 491.014C777.545 489.564 779.129 488.387 780.895 487.549C782.662 486.711 784.576 486.229 786.528 486.131Z" fill="#2F2E41"/>
<path d="M734.829 332.63C735.927 331.652 736.797 330.446 737.378 329.096C737.96 327.745 738.238 326.284 738.193 324.815C738.149 323.345 737.782 321.904 737.12 320.591C736.458 319.278 735.516 318.127 734.361 317.218L746.035 283.444L728.044 288.041L719.716 319.409C718.317 321.451 717.716 323.935 718.027 326.391C718.337 328.846 719.537 331.102 721.4 332.732C723.263 334.362 725.659 335.251 728.134 335.233C730.609 335.214 732.991 334.288 734.829 332.63Z" fill="#FFB8B8"/>
<path d="M806.55 474.424C806.391 474.424 806.233 474.415 806.076 474.398L789.455 472.639C788.434 472.536 787.479 472.084 786.751 471.361C786.023 470.637 785.566 469.686 785.457 468.665L772.612 354.155L763.318 385.49L780.647 447.073C780.823 447.7 780.861 448.358 780.758 449.002C780.656 449.645 780.414 450.258 780.051 450.799C779.688 451.341 779.212 451.796 778.656 452.135C778.099 452.474 777.476 452.688 776.829 452.763L759.981 454.699C758.908 454.818 757.828 454.549 756.936 453.941C756.044 453.333 755.399 452.426 755.118 451.384L736.709 382.081C736.557 381.511 736.52 380.917 736.598 380.333L744.872 318.134L806.586 323.083L811.048 469.786C811.066 470.388 810.964 470.988 810.746 471.55C810.528 472.112 810.2 472.624 809.78 473.057C809.361 473.489 808.859 473.833 808.304 474.068C807.749 474.303 807.152 474.424 806.55 474.424Z" fill="#2F2E41"/>
<path d="M785.217 333.719C764.541 333.719 741.132 325.73 739.715 325.239L739.305 325.097L762.629 205.413L763.059 205.431C772.302 205.806 797.528 205.998 797.782 206L798.234 206.003L807.957 311.622L809.695 327.071L809.482 327.243C803.534 332.052 794.661 333.719 785.217 333.719Z" fill="#519EE6"/>
<path d="M747.864 323.375L733.275 317.499L740.711 227.555C740.89 225.338 741.565 223.189 742.685 221.267C743.806 219.345 745.343 217.699 747.185 216.452L754.862 211.227C754.645 210.488 754.606 209.709 754.749 208.952C754.891 208.195 755.211 207.483 755.682 206.874C756.153 206.265 756.762 205.777 757.459 205.449C758.155 205.121 758.92 204.962 759.689 204.987L761.888 205.058C762.306 204.776 762.799 204.627 763.303 204.631C763.808 204.635 764.299 204.79 764.713 205.078C765.126 205.366 765.444 205.772 765.623 206.243C765.802 206.714 765.834 207.229 765.715 207.719L765.232 217.248L747.864 323.375Z" fill="#2F2E41"/>
<path d="M740.503 307.251L721.454 306.449L727.625 266.756L732.738 229.408C732.839 228.067 733.241 226.766 733.915 225.602C734.589 224.438 735.518 223.442 736.631 222.687C737.744 221.933 739.014 221.44 740.345 221.245C741.675 221.05 743.033 221.158 744.316 221.562C746.314 222.189 748.028 223.499 749.156 225.263C750.285 227.027 750.757 229.132 750.49 231.209L745.31 271.676L740.503 307.251Z" fill="#2F2E41"/>
<path d="M770.664 324.751L770.535 324.35C770.447 324.076 761.862 296.539 776.226 263.678L783.43 227.853L789.585 205.358C789.701 204.956 789.908 204.586 790.191 204.278C790.474 203.971 790.825 203.733 791.217 203.585C791.676 203.426 792.172 203.405 792.643 203.526C793.114 203.647 793.539 203.904 793.865 204.265C798.156 203.006 802.768 203.467 806.725 205.551L815.369 210.105C817.292 211.118 818.823 212.739 819.725 214.716C820.627 216.693 820.847 218.913 820.351 221.028L808.536 271.451L814.279 318.548L770.664 324.751Z" fill="#2F2E41"/>
<path d="M783.245 305.338C784.707 305.496 786.185 305.333 787.576 304.858C788.968 304.384 790.238 303.61 791.298 302.591C792.358 301.573 793.182 300.334 793.711 298.963C794.241 297.591 794.463 296.12 794.363 294.654L821.119 274.833L811.766 270.399L782.915 285.261C780.462 285.593 778.217 286.813 776.603 288.69C774.99 290.568 774.122 292.971 774.162 295.446C774.203 297.921 775.15 300.295 776.824 302.118C778.498 303.941 780.783 305.087 783.245 305.338Z" fill="#FFB8B8"/>
<path d="M800.019 296.465L790.982 279.596L813.27 264.928L802.394 225.919C801.958 224.357 801.849 222.722 802.074 221.116C802.298 219.51 802.851 217.968 803.699 216.585C804.546 215.203 805.669 214.01 806.999 213.081C808.328 212.153 809.834 211.508 811.423 211.187C814.232 210.627 817.149 211.106 819.632 212.534C822.114 213.962 823.995 216.242 824.923 218.951L839.598 262.087C839.901 262.975 839.918 263.937 839.647 264.835C839.375 265.734 838.83 266.526 838.086 267.099L800.019 296.465Z" fill="#2F2E41"/>
<path d="M780.655 177.895C777.711 178.278 775.49 175.266 774.46 172.481C773.43 169.697 772.645 166.455 770.085 164.951C766.588 162.896 762.113 165.367 758.114 164.689C753.598 163.923 750.661 159.137 750.431 154.562C750.201 149.987 752.021 145.586 753.808 141.368L754.431 146.61C754.348 144.834 754.722 143.065 755.517 141.474C756.313 139.883 757.503 138.523 758.974 137.524L758.171 145.216C758.342 144.155 758.721 143.138 759.286 142.223C759.851 141.309 760.591 140.515 761.464 139.887C762.336 139.26 763.324 138.81 764.371 138.566C765.418 138.321 766.502 138.285 767.563 138.46L767.436 143.044C772.653 142.423 777.915 141.802 783.147 142.275C788.379 142.747 793.647 144.403 797.613 147.848C803.544 153.002 805.711 161.489 804.983 169.314C804.256 177.138 801.026 184.488 797.66 191.589C796.813 193.375 795.642 195.391 793.678 195.619C791.913 195.823 790.298 194.348 789.75 192.659C789.327 190.925 789.343 189.113 789.797 187.388C790.294 184.75 790.919 182.055 790.453 179.412C789.986 176.769 788.085 174.158 785.421 173.834C782.757 173.51 780.031 176.555 781.312 178.913L780.655 177.895Z" fill="#2F2E41"/>
<path d="M459.31 447.577L449.749 443.551L443.191 395.623H355.851L348.742 443.356L340.188 447.632C339.779 447.837 339.451 448.174 339.257 448.588C339.063 449.003 339.015 449.47 339.12 449.916C339.225 450.361 339.477 450.758 339.836 451.042C340.195 451.326 340.639 451.48 341.097 451.48H458.522C458.991 451.48 459.446 451.318 459.808 451.021C460.171 450.724 460.42 450.311 460.513 449.851C460.606 449.391 460.537 448.914 460.318 448.499C460.098 448.085 459.742 447.759 459.31 447.577Z" fill="#E6E6E6"/>
<path d="M614.519 402H185.481C183.23 401.995 181.073 401.097 179.483 399.504C177.893 397.91 177 395.751 177 393.5V333H623V393.5C623 395.751 622.107 397.91 620.517 399.504C618.927 401.097 616.77 401.995 614.519 402Z" fill="#CCCCCC"/>
<path d="M623.448 361.594H176.608V102.727C176.612 100.01 177.692 97.4059 179.613 95.485C181.534 93.564 184.139 92.4835 186.855 92.4805H613.201C615.918 92.4835 618.523 93.5641 620.444 95.485C622.365 97.4059 623.445 100.01 623.448 102.727V361.594Z" fill="#3F3D56"/>
<path d="M596.76 342.805H203.296C201.202 342.803 199.194 341.97 197.713 340.489C196.232 339.008 195.399 337 195.396 334.906V119.168C195.399 117.074 196.232 115.066 197.713 113.585C199.194 112.104 201.202 111.271 203.296 111.269H596.76C598.855 111.271 600.863 112.104 602.344 113.585C603.825 115.066 604.658 117.074 604.66 119.168V334.906C604.658 337 603.825 339.008 602.344 340.489C600.863 341.97 598.855 342.803 596.76 342.805Z" fill="white"/>
<path d="M593.057 451.98H212.057C211.792 451.98 211.538 451.875 211.35 451.687C211.162 451.5 211.057 451.245 211.057 450.98C211.057 450.715 211.162 450.461 211.35 450.273C211.538 450.086 211.792 449.98 212.057 449.98H593.057C593.322 449.98 593.577 450.086 593.764 450.273C593.952 450.461 594.057 450.715 594.057 450.98C594.057 451.245 593.952 451.5 593.764 451.687C593.577 451.875 593.322 451.98 593.057 451.98Z" fill="#CCCCCC"/>
<path d="M559.796 316H240.261C239.996 316 239.741 315.895 239.554 315.707C239.366 315.52 239.261 315.265 239.261 315V161.847C239.261 161.581 239.366 161.327 239.554 161.14C239.741 160.952 239.996 160.847 240.261 160.847C240.526 160.847 240.78 160.952 240.968 161.14C241.155 161.327 241.261 161.581 241.261 161.847V314H559.796C560.061 314 560.316 314.105 560.503 314.293C560.691 314.48 560.796 314.735 560.796 315C560.796 315.265 560.691 315.52 560.503 315.707C560.316 315.895 560.061 316 559.796 316Z" fill="#3F3D56"/>
<path d="M308.531 305H279.469C278.682 304.999 277.927 304.686 277.371 304.13C276.814 303.573 276.501 302.819 276.5 302.032V261.968C276.501 261.181 276.814 260.427 277.371 259.87C277.927 259.314 278.682 259.001 279.469 259H308.531C309.318 259.001 310.073 259.314 310.629 259.87C311.186 260.427 311.499 261.181 311.5 261.968V302.032C311.499 302.819 311.186 303.573 310.629 304.13C310.073 304.686 309.318 304.999 308.531 305Z" fill="#519EE6"/>
<path d="M361.531 305H332.469C331.682 304.999 330.927 304.686 330.371 304.13C329.814 303.573 329.501 302.819 329.5 302.032V223.968C329.501 223.181 329.814 222.427 330.371 221.87C330.927 221.314 331.682 221.001 332.469 221H361.531C362.318 221.001 363.073 221.314 363.629 221.87C364.186 222.427 364.499 223.181 364.5 223.968V302.032C364.499 302.819 364.186 303.573 363.629 304.13C363.073 304.686 362.318 304.999 361.531 305Z" fill="#519EE6"/>
<path d="M414.531 305H385.469C384.682 304.999 383.927 304.686 383.371 304.13C382.814 303.573 382.501 302.819 382.5 302.032V261.968C382.501 261.181 382.814 260.427 383.371 259.87C383.927 259.314 384.682 259.001 385.469 259H414.531C415.318 259.001 416.073 259.314 416.629 259.87C417.186 260.427 417.499 261.181 417.5 261.968V302.032C417.499 302.819 417.186 303.573 416.629 304.13C416.073 304.686 415.318 304.999 414.531 305Z" fill="#519EE6"/>
<path d="M467.531 305H438.469C437.699 305.016 436.955 304.728 436.399 304.196C435.842 303.665 435.519 302.935 435.5 302.166V208.834C435.519 208.065 435.842 207.335 436.399 206.803C436.955 206.272 437.699 205.983 438.469 206H467.531C468.301 205.983 469.045 206.272 469.601 206.803C470.158 207.335 470.481 208.065 470.5 208.834V302.166C470.481 302.935 470.158 303.665 469.601 304.196C469.045 304.728 468.301 305.016 467.531 305Z" fill="#519EE6"/>
<path d="M520.531 305H491.469C490.682 304.999 489.927 304.686 489.37 304.13C488.814 303.573 488.501 302.819 488.5 302.032V181.968C488.501 181.181 488.814 180.427 489.37 179.87C489.927 179.314 490.682 179.001 491.469 179H520.531C521.318 179.001 522.073 179.314 522.63 179.87C523.186 180.427 523.499 181.181 523.5 181.968V302.032C523.499 302.819 523.186 303.573 522.63 304.13C522.073 304.686 521.318 304.999 520.531 305Z" fill="#519EE6"/>
<path d="M294 247C297.314 247 300 244.314 300 241C300 237.686 297.314 235 294 235C290.686 235 288 237.686 288 241C288 244.314 290.686 247 294 247Z" fill="#3F3D56"/>
<path d="M347 208C350.314 208 353 205.314 353 202C353 198.686 350.314 196 347 196C343.686 196 341 198.686 341 202C341 205.314 343.686 208 347 208Z" fill="#3F3D56"/>
<path d="M400 247C403.314 247 406 244.314 406 241C406 237.686 403.314 235 400 235C396.686 235 394 237.686 394 241C394 244.314 396.686 247 400 247Z" fill="#3F3D56"/>
<path d="M453 189C456.314 189 459 186.314 459 183C459 179.686 456.314 177 453 177C449.686 177 447 179.686 447 183C447 186.314 449.686 189 453 189Z" fill="#3F3D56"/>
<path d="M506 167C509.314 167 512 164.314 512 161C512 157.686 509.314 155 506 155C502.686 155 500 157.686 500 161C500 164.314 502.686 167 506 167Z" fill="#3F3D56"/>
<path d="M400.126 242.344L347 202.552L294.6 241.8L293.4 240.2L347 200.053L399.874 239.656L452.415 182.158L452.626 182.072L505.626 160.718L506.374 162.573L453.585 183.842L400.126 242.344Z" fill="#3F3D56"/>
</g>
<defs>
<filter id="filter0_i_411_264" x="727" y="47" width="107" height="292" filterUnits="userSpaceOnUse" color-interpolation-filters="sRGB">
<feFlood flood-opacity="0" result="BackgroundImageFix"/>
<feBlend mode="normal" in="SourceGraphic" in2="BackgroundImageFix" result="shape"/>
<feColorMatrix in="SourceAlpha" type="matrix" values="0 0 0 0 0 0 0 0 0 0 0 0 0 0 0 0 0 0 127 0" result="hardAlpha"/>
<feMorphology radius="6" operator="erode" in="SourceAlpha" result="effect1_innerShadow_411_264"/>
<feOffset dy="4"/>
<feGaussianBlur stdDeviation="7.5"/>
<feComposite in2="hardAlpha" operator="arithmetic" k2="-1" k3="1"/>
<feColorMatrix type="matrix" values="0 0 0 0 0 0 0 0 0 0 0 0 0 0 0 0 0 0 0.25 0"/>
<feBlend mode="normal" in2="shape" result="effect1_innerShadow_411_264"/>
</filter>
<filter id="filter1_i_411_264" x="132" y="45" width="107" height="292" filterUnits="userSpaceOnUse" color-interpolation-filters="sRGB">
<feFlood flood-opacity="0" result="BackgroundImageFix"/>
<feBlend mode="normal" in="SourceGraphic" in2="BackgroundImageFix" result="shape"/>
<feColorMatrix in="SourceAlpha" type="matrix" values="0 0 0 0 0 0 0 0 0 0 0 0 0 0 0 0 0 0 127 0" result="hardAlpha"/>
<feMorphology radius="6" operator="erode" in="SourceAlpha" result="effect1_innerShadow_411_264"/>
<feOffset dy="4"/>
<feGaussianBlur stdDeviation="7.5"/>
<feComposite in2="hardAlpha" operator="arithmetic" k2="-1" k3="1"/>
<feColorMatrix type="matrix" values="0 0 0 0 0 0 0 0 0 0 0 0 0 0 0 0 0 0 0.25 0"/>
<feBlend mode="normal" in2="shape" result="effect1_innerShadow_411_264"/>
</filter>
<clipPath id="clip0_411_264">
<rect width="966" height="502" fill="white"/>
</clipPath>
</defs>
</svg>
