<svg width="123" height="21" viewBox="0 0 123 21" fill="none" xmlns="http://www.w3.org/2000/svg">
<path d="M6.5 16.24C5.5 16.24 4.58667 16.0667 3.76 15.72C2.94667 15.3733 2.26 14.8867 1.7 14.26C1.15333 13.62 0.773333 12.88 0.56 12.04L2.9 11.16C3.15333 12.0133 3.6 12.68 4.24 13.16C4.89333 13.6267 5.64667 13.86 6.5 13.86C7.02 13.86 7.47333 13.7733 7.86 13.6C8.24667 13.4133 8.54 13.1667 8.74 12.86C8.95333 12.5533 9.06 12.2133 9.06 11.84C9.06 11.4533 8.94 11.1267 8.7 10.86C8.47333 10.5933 8.10667 10.38 7.6 10.22L4.96 9.34C3.90667 8.99333 3.12 8.49333 2.6 7.84C2.08 7.18667 1.82 6.39333 1.82 5.46C1.82 4.59333 2.04667 3.81333 2.5 3.12C2.96667 2.42667 3.59333 1.88 4.38 1.48C5.16667 1.06667 6.06 0.859999 7.06 0.859999C7.99333 0.859999 8.83333 1.02 9.58 1.34C10.3267 1.66 10.9467 2.1 11.44 2.66C11.9467 3.22 12.2933 3.88 12.48 4.64L10.16 5.52C9.96 4.8 9.58 4.24 9.02 3.84C8.46 3.44 7.78667 3.24 7 3.24C6.52 3.24 6.09333 3.32667 5.72 3.5C5.34667 3.66 5.05333 3.88667 4.84 4.18C4.64 4.47333 4.54 4.82 4.54 5.22C4.54 5.62 4.66 5.96667 4.9 6.26C5.15333 6.54 5.54 6.76667 6.06 6.94L8.56 7.8C9.65333 8.16 10.4667 8.66 11 9.3C11.5333 9.94 11.8 10.7267 11.8 11.66C11.8 12.5 11.5667 13.2667 11.1 13.96C10.6333 14.6533 10 15.2067 9.2 15.62C8.41333 16.0333 7.51333 16.24 6.5 16.24ZM18.5283 16.12C17.2749 16.12 16.3416 15.7733 15.7283 15.08C15.1283 14.3733 14.9083 13.4133 15.0683 12.2L15.7283 7.46H13.8683L14.1883 5.12H14.3283C14.8616 5.12 15.3083 4.96667 15.6683 4.66C16.0283 4.35333 16.2416 3.93333 16.3083 3.4L16.4083 2.64H19.0683L18.7283 5.12H21.1883L20.8683 7.46H18.3883L17.7283 12.18C17.6749 12.5533 17.6816 12.86 17.7483 13.1C17.8283 13.34 17.9816 13.52 18.2083 13.64C18.4483 13.76 18.7749 13.82 19.1883 13.82C19.3083 13.82 19.4283 13.82 19.5483 13.82C19.6683 13.8067 19.8083 13.7867 19.9683 13.76L19.7683 16C19.5816 16.0533 19.3683 16.0867 19.1283 16.1C18.9016 16.1133 18.7016 16.12 18.5283 16.12ZM27.3342 16.24C26.3076 16.24 25.3809 16.0133 24.5542 15.56C23.7276 15.0933 23.0742 14.46 22.5942 13.66C22.1142 12.8467 21.8742 11.92 21.8742 10.88C21.8742 10.04 22.0276 9.26 22.3342 8.54C22.6542 7.80667 23.0942 7.16667 23.6542 6.62C24.2142 6.07333 24.8609 5.64667 25.5942 5.34C26.3276 5.03333 27.1142 4.88 27.9542 4.88C28.9809 4.88 29.9076 5.11333 30.7342 5.58C31.5609 6.03333 32.2142 6.66 32.6942 7.46C33.1742 8.26 33.4142 9.18667 33.4142 10.24C33.4142 11.0667 33.2542 11.8467 32.9342 12.58C32.6142 13.3 32.1742 13.94 31.6142 14.5C31.0542 15.0467 30.4076 15.4733 29.6742 15.78C28.9409 16.0867 28.1609 16.24 27.3342 16.24ZM27.3542 13.84C27.9942 13.84 28.5609 13.68 29.0542 13.36C29.5609 13.0267 29.9542 12.5867 30.2342 12.04C30.5276 11.48 30.6742 10.8667 30.6742 10.2C30.6742 9.62667 30.5609 9.12667 30.3342 8.7C30.1076 8.26 29.7876 7.91333 29.3742 7.66C28.9609 7.40667 28.4809 7.28 27.9342 7.28C27.2942 7.28 26.7209 7.44667 26.2142 7.78C25.7076 8.1 25.3142 8.53333 25.0342 9.08C24.7542 9.62667 24.6142 10.24 24.6142 10.92C24.6142 11.4933 24.7276 12 24.9542 12.44C25.1809 12.8667 25.5009 13.2067 25.9142 13.46C26.3276 13.7133 26.8076 13.84 27.3542 13.84ZM40.3392 16.24C39.3126 16.24 38.3926 16.0067 37.5792 15.54C36.7659 15.0733 36.1326 14.44 35.6792 13.64C35.2259 12.8267 34.9992 11.9133 34.9992 10.9C34.9992 10.06 35.1526 9.27333 35.4592 8.54C35.7659 7.80667 36.1926 7.16667 36.7392 6.62C37.2992 6.07333 37.9392 5.64667 38.6592 5.34C39.3926 5.03333 40.1726 4.88 40.9992 4.88C41.7992 4.88 42.5259 5.02 43.1792 5.3C43.8326 5.56667 44.3859 5.94667 44.8392 6.44C45.3059 6.92 45.6259 7.48 45.7992 8.12L43.4592 9.08C43.2992 8.52 42.9992 8.08 42.5592 7.76C42.1192 7.44 41.5926 7.28 40.9792 7.28C40.3392 7.28 39.7726 7.45333 39.2792 7.8C38.7859 8.13333 38.4059 8.57333 38.1392 9.12C37.8726 9.66667 37.7392 10.26 37.7392 10.9C37.7392 11.4733 37.8459 11.98 38.0592 12.42C38.2859 12.86 38.5992 13.2067 38.9992 13.46C39.4126 13.7133 39.8792 13.84 40.3992 13.84C41.0526 13.84 41.6259 13.6733 42.1192 13.34C42.6126 12.9933 42.9859 12.54 43.2392 11.98L45.4592 13.08C45.2059 13.6933 44.8259 14.24 44.3192 14.72C43.8126 15.2 43.2192 15.5733 42.5392 15.84C41.8592 16.1067 41.1259 16.24 40.3392 16.24ZM47.0616 16L49.1816 0.859999H51.8216L50.4216 10.78L49.2016 10.48L55.0816 5.12H58.5816L53.9416 9.5L57.1416 16H54.3016L51.5416 10.36L52.9816 10.04L49.2016 13.56L50.2616 11.96L49.7016 16H47.0616ZM58.585 16L60.105 5.12H62.745L61.225 16H58.585ZM60.265 3.9L60.665 1.1H63.305L62.925 3.9H60.265ZM64.9031 16L66.1031 7.46H64.2031L64.5231 5.12H66.4431L66.5031 4.74C66.6365 3.9 66.9031 3.19333 67.3031 2.62C67.7031 2.03333 68.2165 1.59333 68.8431 1.3C69.4698 1.00667 70.1898 0.859999 71.0031 0.859999C71.2031 0.859999 71.3965 0.873333 71.5831 0.899999C71.7831 0.926666 71.9498 0.953333 72.0831 0.979999L71.9231 3.2C71.7898 3.17333 71.6698 3.16 71.5631 3.16C71.4565 3.16 71.3698 3.16 71.3031 3.16C70.6898 3.16 70.1898 3.28667 69.8031 3.54C69.4298 3.78 69.1965 4.21333 69.1031 4.84L69.0631 5.12H71.4831L71.1431 7.46H68.7431L67.5431 16H64.9031ZM72.6663 20.42C72.3329 20.42 72.0263 20.3867 71.7463 20.32C71.4796 20.2667 71.2396 20.1867 71.0262 20.08L71.1862 17.94C71.3596 17.98 71.5596 18.0133 71.7863 18.04C72.0263 18.08 72.2329 18.1 72.4063 18.1C72.8063 18.1 73.1396 18.0267 73.4063 17.88C73.6863 17.7467 73.9263 17.5533 74.1263 17.3C74.3396 17.06 74.5329 16.7933 74.7063 16.5L75.6863 14.9L75.4263 17.1L72.3863 5.12H75.0863L77.1663 13.96H76.1263L80.7063 5.12H83.6663L77.2263 17.18C76.8529 17.8733 76.4329 18.46 75.9663 18.94C75.5129 19.4333 75.0129 19.8 74.4663 20.04C73.9196 20.2933 73.3196 20.42 72.6663 20.42ZM83.805 16L85.885 1.1H88.605L87.705 7.6H94.045L94.965 1.1H97.685L95.605 16H92.885L93.705 10H87.365L86.525 16H83.805ZM102.253 16.24C101.386 16.24 100.66 16.0467 100.073 15.66C99.4863 15.26 99.0663 14.7067 98.813 14C98.573 13.2933 98.5196 12.4667 98.653 11.52L99.553 5.12H102.193L101.293 11.56C101.226 12.0133 101.26 12.4133 101.393 12.76C101.526 13.1067 101.746 13.3733 102.053 13.56C102.36 13.7467 102.726 13.84 103.153 13.84C103.593 13.84 103.986 13.7467 104.333 13.56C104.693 13.36 104.993 13.0867 105.233 12.74C105.486 12.38 105.64 11.9667 105.693 11.5L106.593 5.12H109.213L107.693 16H105.213L105.493 13.86L105.673 14.3C105.34 14.9667 104.866 15.46 104.253 15.78C103.653 16.0867 102.986 16.24 102.253 16.24ZM116.448 16.24C115.595 16.24 114.821 16.08 114.128 15.76C113.448 15.4267 112.928 14.9667 112.568 14.38L112.908 13.9L112.628 16H110.128L112.248 0.859999H114.888L114.008 7.28L113.288 6.7C113.715 6.11333 114.255 5.66667 114.908 5.36C115.575 5.04 116.308 4.88 117.108 4.88C118.121 4.88 119.015 5.12 119.788 5.6C120.561 6.06667 121.168 6.7 121.608 7.5C122.061 8.3 122.288 9.2 122.288 10.2C122.288 11.0267 122.135 11.8067 121.828 12.54C121.535 13.2733 121.121 13.92 120.588 14.48C120.055 15.0267 119.435 15.46 118.728 15.78C118.021 16.0867 117.261 16.24 116.448 16.24ZM116.188 13.84C116.841 13.84 117.421 13.68 117.928 13.36C118.435 13.0267 118.828 12.5867 119.108 12.04C119.401 11.4933 119.548 10.8867 119.548 10.22C119.548 9.64667 119.428 9.14 119.188 8.7C118.961 8.26 118.641 7.91333 118.228 7.66C117.815 7.40667 117.321 7.28 116.748 7.28C116.108 7.28 115.535 7.44667 115.028 7.78C114.535 8.1 114.148 8.53333 113.868 9.08C113.588 9.62667 113.448 10.2333 113.448 10.9C113.448 11.4733 113.561 11.9867 113.788 12.44C114.028 12.88 114.355 13.2267 114.768 13.48C115.181 13.72 115.655 13.84 116.188 13.84Z" fill="#7AA7D0"/>
</svg>
