<svg width="1122" height="507" viewBox="0 0 1122 507" fill="none" xmlns="http://www.w3.org/2000/svg">
<g clip-path="url(#clip0_407_90)">
<path d="M370.806 444.609L345.125 436.834C341.757 423.151 341.78 408.852 345.192 395.18C355.768 417.889 385.984 423.089 403.399 441.096C414.314 452.557 419.425 468.36 417.287 484.042L422.908 502.223C397.448 500.385 374.07 487.492 358.932 466.939C354.792 461.2 351.391 454.962 348.81 448.373C359.702 447.138 370.806 444.609 370.806 444.609Z" fill="#F2F2F2"/>
<path d="M819.773 503.43C819.769 503.962 819.557 504.472 819.183 504.85C818.809 505.223 818.301 505.432 817.773 505.43H809.733C808.632 505.434 807.737 504.545 807.733 503.444V260.29C807.733 254.93 805.933 250.58 803.723 250.57H303.233C301.013 250.58 299.223 254.93 299.213 260.29V501.94C299.21 502.97 298.427 503.829 297.403 503.93C295.783 504.09 294.163 504.23 292.553 504.36C292.513 504.36 292.473 504.37 292.433 504.37C291.553 504.45 290.673 504.51 289.793 504.58H289.783C289.323 503.75 288.883 502.9 288.433 502.05C288.289 501.761 288.213 501.443 288.213 501.12V247.68C288.213 246.2 288.273 244.71 288.373 243.24C288.516 241.222 288.766 239.212 289.123 237.22C290.813 227.93 294.633 221.64 298.973 221.62H807.973C808.606 221.624 809.232 221.757 809.813 222.01C810.666 222.388 811.437 222.928 812.083 223.6C812.96 224.512 813.71 225.538 814.313 226.65C816.453 230.42 817.983 236.04 818.523 242.58C818.523 242.64 818.533 242.7 818.533 242.76C818.673 244.38 818.743 246.03 818.733 247.68L818.873 269.11L818.963 281.89L819.233 321.99L819.333 336.23L819.773 503.43Z" fill="#E6E6E6"/>
<path d="M634.024 147.486H583.018C581.516 147.489 580.299 148.708 580.301 150.211V230.785H636.748V150.211C636.749 148.707 635.53 147.487 634.027 147.486H634.024ZM608.693 193.268C605.373 193.252 602.685 190.565 602.67 187.245V177.951C602.67 174.625 605.366 171.928 608.693 171.928C612.019 171.928 614.715 174.625 614.715 177.951V187.245C614.7 190.565 612.013 193.252 608.693 193.268Z" fill="#CCCCCC"/>
<path d="M580.126 228.207V235.981C580.128 236.82 580.807 237.499 581.646 237.501H635.404C636.241 237.497 636.919 236.819 636.923 235.981V228.207H580.126Z" fill="#3F3D56"/>
<path d="M718.484 21.7419H500.455C496.555 21.7481 493.395 24.9082 493.389 28.8083V175.935C493.392 179.836 496.554 182.998 500.455 183.002H718.484C722.385 182.998 725.547 179.836 725.55 175.935V28.8083C725.544 24.9082 722.384 21.7481 718.484 21.7419Z" fill="#E6E6E6"/>
<path d="M716.665 26.8459H502.277C500.189 26.8504 498.498 28.5445 498.498 30.6329V174.113C498.502 176.199 500.192 177.889 502.277 177.892H716.665C718.75 177.889 720.44 176.199 720.444 174.113V30.6328C720.444 28.5445 718.753 26.8504 716.665 26.8459Z" fill="white"/>
<path d="M674.905 240.206H547.356C546.06 240.206 545.01 239.155 545.01 237.86C545.01 237.697 545.027 237.535 545.06 237.376L547.039 227.977C547.271 226.893 548.227 226.118 549.335 226.114H672.926C674.034 226.118 674.99 226.893 675.222 227.977L677.201 237.376C677.468 238.644 676.656 239.889 675.388 240.156C675.229 240.189 675.067 240.206 674.905 240.206Z" fill="#CCCCCC"/>
<path d="M553.681 227.806H550.729C550.46 227.806 550.241 228.025 550.241 228.294V229.675C550.241 229.945 550.46 230.163 550.729 230.163H553.681C553.951 230.163 554.17 229.945 554.17 229.675V228.294C554.17 228.025 553.951 227.806 553.681 227.806Z" fill="#E6E6E6"/>
<path d="M561.538 227.806H558.586C558.316 227.806 558.098 228.025 558.098 228.294V229.675C558.098 229.945 558.316 230.163 558.586 230.163H561.538C561.807 230.163 562.026 229.945 562.026 229.675V228.294C562.026 228.025 561.807 227.806 561.538 227.806Z" fill="#E6E6E6"/>
<path d="M569.394 227.806H566.442C566.173 227.806 565.954 228.025 565.954 228.294V229.675C565.954 229.945 566.173 230.163 566.442 230.163H569.394C569.664 230.163 569.883 229.945 569.883 229.675V228.294C569.883 228.025 569.664 227.806 569.394 227.806Z" fill="#E6E6E6"/>
<path d="M577.252 227.806H574.3C574.03 227.806 573.812 228.025 573.812 228.294V229.675C573.812 229.945 574.03 230.163 574.3 230.163H577.252C577.521 230.163 577.74 229.945 577.74 229.675V228.294C577.74 228.025 577.521 227.806 577.252 227.806Z" fill="#E6E6E6"/>
<path d="M585.108 227.806H582.156C581.887 227.806 581.668 228.025 581.668 228.294V229.675C581.668 229.945 581.887 230.163 582.156 230.163H585.108C585.378 230.163 585.596 229.945 585.596 229.675V228.294C585.596 228.025 585.378 227.806 585.108 227.806Z" fill="#E6E6E6"/>
<path d="M592.965 227.806H590.013C589.743 227.806 589.524 228.025 589.524 228.294V229.675C589.524 229.945 589.743 230.163 590.013 230.163H592.965C593.234 230.163 593.453 229.945 593.453 229.675V228.294C593.453 228.025 593.234 227.806 592.965 227.806Z" fill="#E6E6E6"/>
<path d="M600.822 227.806H597.87C597.6 227.806 597.382 228.025 597.382 228.294V229.675C597.382 229.945 597.6 230.163 597.87 230.163H600.822C601.092 230.163 601.31 229.945 601.31 229.675V228.294C601.31 228.025 601.092 227.806 600.822 227.806Z" fill="#E6E6E6"/>
<path d="M608.678 227.806H605.726C605.457 227.806 605.238 228.025 605.238 228.294V229.675C605.238 229.945 605.457 230.163 605.726 230.163H608.678C608.948 230.163 609.167 229.945 609.167 229.675V228.294C609.167 228.025 608.948 227.806 608.678 227.806Z" fill="#E6E6E6"/>
<path d="M616.535 227.806H613.583C613.313 227.806 613.095 228.025 613.095 228.294V229.675C613.095 229.945 613.313 230.163 613.583 230.163H616.535C616.805 230.163 617.023 229.945 617.023 229.675V228.294C617.023 228.025 616.805 227.806 616.535 227.806Z" fill="#E6E6E6"/>
<path d="M624.392 227.806H621.44C621.171 227.806 620.952 228.025 620.952 228.294V229.675C620.952 229.945 621.171 230.163 621.44 230.163H624.392C624.662 230.163 624.881 229.945 624.881 229.675V228.294C624.881 228.025 624.662 227.806 624.392 227.806Z" fill="#E6E6E6"/>
<path d="M632.249 227.806H629.297C629.027 227.806 628.809 228.025 628.809 228.294V229.675C628.809 229.945 629.027 230.163 629.297 230.163H632.249C632.518 230.163 632.737 229.945 632.737 229.675V228.294C632.737 228.025 632.518 227.806 632.249 227.806Z" fill="#E6E6E6"/>
<path d="M640.105 227.806H637.153C636.884 227.806 636.665 228.025 636.665 228.294V229.675C636.665 229.945 636.884 230.163 637.153 230.163H640.105C640.375 230.163 640.593 229.945 640.593 229.675V228.294C640.593 228.025 640.375 227.806 640.105 227.806Z" fill="#E6E6E6"/>
<path d="M647.963 227.806H645.011C644.741 227.806 644.522 228.025 644.522 228.294V229.675C644.522 229.945 644.741 230.163 645.011 230.163H647.963C648.232 230.163 648.451 229.945 648.451 229.675V228.294C648.451 228.025 648.232 227.806 647.963 227.806Z" fill="#E6E6E6"/>
<path d="M655.819 227.806H652.867C652.597 227.806 652.379 228.025 652.379 228.294V229.675C652.379 229.945 652.597 230.163 652.867 230.163H655.819C656.089 230.163 656.307 229.945 656.307 229.675V228.294C656.307 228.025 656.089 227.806 655.819 227.806Z" fill="#E6E6E6"/>
<path d="M663.676 227.806H660.724C660.454 227.806 660.235 228.025 660.235 228.294V229.675C660.235 229.945 660.454 230.163 660.724 230.163H663.676C663.945 230.163 664.164 229.945 664.164 229.675V228.294C664.164 228.025 663.945 227.806 663.676 227.806Z" fill="#E6E6E6"/>
<path d="M671.533 227.806H668.581C668.311 227.806 668.093 228.025 668.093 228.294V229.675C668.093 229.945 668.311 230.163 668.581 230.163H671.533C671.803 230.163 672.021 229.945 672.021 229.675V228.294C672.021 228.025 671.803 227.806 671.533 227.806Z" fill="#E6E6E6"/>
<path d="M553.589 231.735H550.637C550.367 231.735 550.148 231.953 550.148 232.223V233.603C550.148 233.873 550.367 234.092 550.637 234.092H553.589C553.858 234.092 554.077 233.873 554.077 233.603V232.223C554.077 231.953 553.858 231.735 553.589 231.735Z" fill="#E6E6E6"/>
<path d="M561.445 231.735H558.493C558.223 231.735 558.005 231.953 558.005 232.223V233.603C558.005 233.873 558.223 234.092 558.493 234.092H561.445C561.715 234.092 561.933 233.873 561.933 233.603V232.223C561.933 231.953 561.715 231.735 561.445 231.735Z" fill="#E6E6E6"/>
<path d="M569.302 231.735H566.35C566.08 231.735 565.861 231.953 565.861 232.223V233.603C565.861 233.873 566.08 234.092 566.35 234.092H569.302C569.571 234.092 569.79 233.873 569.79 233.603V232.223C569.79 231.953 569.571 231.735 569.302 231.735Z" fill="#E6E6E6"/>
<path d="M577.159 231.735H574.207C573.937 231.735 573.719 231.953 573.719 232.223V233.603C573.719 233.873 573.937 234.092 574.207 234.092H577.159C577.429 234.092 577.647 233.873 577.647 233.603V232.223C577.647 231.953 577.429 231.735 577.159 231.735Z" fill="#E6E6E6"/>
<path d="M585.015 231.735H582.063C581.794 231.735 581.575 231.953 581.575 232.223V233.603C581.575 233.873 581.794 234.092 582.063 234.092H585.015C585.285 234.092 585.504 233.873 585.504 233.603V232.223C585.504 231.953 585.285 231.735 585.015 231.735Z" fill="#E6E6E6"/>
<path d="M592.872 231.735H589.92C589.65 231.735 589.432 231.953 589.432 232.223V233.603C589.432 233.873 589.65 234.092 589.92 234.092H592.872C593.141 234.092 593.36 233.873 593.36 233.603V232.223C593.36 231.953 593.141 231.735 592.872 231.735Z" fill="#E6E6E6"/>
<path d="M600.729 231.735H597.777C597.508 231.735 597.289 231.953 597.289 232.223V233.603C597.289 233.873 597.508 234.092 597.777 234.092H600.729C600.999 234.092 601.217 233.873 601.217 233.603V232.223C601.217 231.953 600.999 231.735 600.729 231.735Z" fill="#E6E6E6"/>
<path d="M608.586 231.735H605.634C605.364 231.735 605.146 231.953 605.146 232.223V233.603C605.146 233.873 605.364 234.092 605.634 234.092H608.586C608.855 234.092 609.074 233.873 609.074 233.603V232.223C609.074 231.953 608.855 231.735 608.586 231.735Z" fill="#E6E6E6"/>
<path d="M616.442 231.735H613.49C613.221 231.735 613.002 231.953 613.002 232.223V233.603C613.002 233.873 613.221 234.092 613.49 234.092H616.442C616.712 234.092 616.93 233.873 616.93 233.603V232.223C616.93 231.953 616.712 231.735 616.442 231.735Z" fill="#E6E6E6"/>
<path d="M624.3 231.735H621.348C621.078 231.735 620.859 231.953 620.859 232.223V233.603C620.859 233.873 621.078 234.092 621.348 234.092H624.3C624.569 234.092 624.788 233.873 624.788 233.603V232.223C624.788 231.953 624.569 231.735 624.3 231.735Z" fill="#E6E6E6"/>
<path d="M632.156 231.735H629.204C628.934 231.735 628.716 231.953 628.716 232.223V233.603C628.716 233.873 628.934 234.092 629.204 234.092H632.156C632.426 234.092 632.644 233.873 632.644 233.603V232.223C632.644 231.953 632.426 231.735 632.156 231.735Z" fill="#E6E6E6"/>
<path d="M640.012 231.735H637.06C636.791 231.735 636.572 231.953 636.572 232.223V233.603C636.572 233.873 636.791 234.092 637.06 234.092H640.012C640.282 234.092 640.501 233.873 640.501 233.603V232.223C640.501 231.953 640.282 231.735 640.012 231.735Z" fill="#E6E6E6"/>
<path d="M647.87 231.735H644.918C644.648 231.735 644.43 231.953 644.43 232.223V233.603C644.43 233.873 644.648 234.092 644.918 234.092H647.87C648.139 234.092 648.358 233.873 648.358 233.603V232.223C648.358 231.953 648.139 231.735 647.87 231.735Z" fill="#E6E6E6"/>
<path d="M655.726 231.735H652.774C652.505 231.735 652.286 231.953 652.286 232.223V233.603C652.286 233.873 652.505 234.092 652.774 234.092H655.726C655.996 234.092 656.215 233.873 656.215 233.603V232.223C656.215 231.953 655.996 231.735 655.726 231.735Z" fill="#E6E6E6"/>
<path d="M663.583 231.735H660.631C660.361 231.735 660.143 231.953 660.143 232.223V233.603C660.143 233.873 660.361 234.092 660.631 234.092H663.583C663.852 234.092 664.071 233.873 664.071 233.603V232.223C664.071 231.953 663.852 231.735 663.583 231.735Z" fill="#E6E6E6"/>
<path d="M671.44 231.735H668.488C668.219 231.735 668 231.953 668 232.223V233.603C668 233.873 668.219 234.092 668.488 234.092H671.44C671.71 234.092 671.928 233.873 671.928 233.603V232.223C671.928 231.953 671.71 231.735 671.44 231.735Z" fill="#E6E6E6"/>
<path d="M618.799 236.449H588.349C588.079 236.449 587.86 236.667 587.86 236.937V238.317C587.86 238.587 588.079 238.806 588.349 238.806H618.799C619.069 238.806 619.287 238.587 619.287 238.317V236.937C619.287 236.667 619.069 236.449 618.799 236.449Z" fill="#E6E6E6"/>
<path d="M705.888 46.6142H505.286C504.846 46.6045 504.496 46.2395 504.506 45.7989C504.515 45.372 504.859 45.0281 505.286 45.0187H705.888C706.328 45.0284 706.678 45.3934 706.668 45.834C706.659 46.261 706.315 46.6048 705.888 46.6142Z" fill="#CACACA"/>
<path d="M518.941 40.9457C521.523 40.9457 523.616 38.8059 523.616 36.1664C523.616 33.5268 521.523 31.3871 518.941 31.3871C516.359 31.3871 514.266 33.5268 514.266 36.1664C514.266 38.8059 516.359 40.9457 518.941 40.9457Z" fill="#CCCCCC"/>
<path d="M535.091 40.9457C537.673 40.9457 539.766 38.8059 539.766 36.1664C539.766 33.5268 537.673 31.3871 535.091 31.3871C532.509 31.3871 530.416 33.5268 530.416 36.1664C530.416 38.8059 532.509 40.9457 535.091 40.9457Z" fill="#CCCCCC"/>
<path d="M551.242 40.9457C553.824 40.9457 555.917 38.8059 555.917 36.1664C555.917 33.5268 553.824 31.3871 551.242 31.3871C548.66 31.3871 546.566 33.5268 546.566 36.1664C546.566 38.8059 548.66 40.9457 551.242 40.9457Z" fill="#CCCCCC"/>
<path d="M605.381 58.71L604.733 56.817L687.591 13.765L688.238 15.658L605.381 58.71Z" fill="#3F3D56"/>
<path d="M855.381 138.452L854.733 136.559L904.591 93.725L905.238 95.617L855.381 138.452Z" fill="#3F3D56"/>
<path d="M759.591 148.423L676.733 105.371L677.381 103.478L760.238 146.53L759.591 148.423Z" fill="#3F3D56"/>
<path d="M802.007 118.465L753.432 38.719L754.967 37.436L803.541 117.182L802.007 118.465Z" fill="#3F3D56"/>
<path d="M839.914 14.554L792.607 14.336V12.336L839.914 12.554V14.554Z" fill="#3F3D56"/>
<path d="M925.611 26.9595H872.611C865.432 26.9595 859.611 21.1392 859.611 13.9595C859.611 6.77977 865.432 0.959473 872.611 0.959473H925.611C932.791 0.959473 938.611 6.77977 938.611 13.9595C938.611 21.1392 932.791 26.9595 925.611 26.9595Z" fill="#519EE6"/>
<path d="M905.914 156.553L858.607 156.336V154.336L905.914 154.553V156.553Z" fill="#3F3D56"/>
<path d="M836.611 160H783.611C776.432 160 770.611 154.18 770.611 147C770.611 139.82 776.432 134 783.611 134H836.611C843.791 134 849.611 139.82 849.611 147C849.611 154.18 843.791 160 836.611 160Z" fill="#519EE6"/>
<path d="M764.611 26H711.611C704.432 26 698.611 20.1797 698.611 13C698.611 5.8203 704.432 0 711.611 0H764.611C771.791 0 777.611 5.8203 777.611 13C777.611 20.1797 771.791 26 764.611 26Z" fill="#519EE6"/>
<path d="M511.283 249.18H451.283C446.865 249.18 443.283 252.762 443.283 257.18C443.283 261.598 446.865 265.18 451.283 265.18H473.283V327.18H489.283V265.18H511.283C515.701 265.18 519.283 261.598 519.283 257.18C519.283 252.762 515.701 249.18 511.283 249.18Z" fill="#3F3D56"/>
<path d="M550.884 361.517H390.401C358.243 361.4 331.035 337.717 326.485 305.881L320.804 284.986C309.046 241.685 291.137 200.296 267.623 162.083C256.875 144.629 251.344 127.734 263.908 111.467C264.015 111.329 264.12 111.192 264.224 111.058C274.301 97.9414 324.458 95.1021 340.809 94.5498C341.455 94.5278 342.103 94.5169 342.754 94.5171H442.573C443.225 94.5171 443.873 94.5281 444.518 94.5498C462.476 95.0733 478.698 105.413 486.754 121.471C495.351 137.866 494.254 157.656 483.898 173.001C448.835 225.671 438.1 258.698 449.09 280.086C459.722 300.773 492.31 311.35 551.649 313.371C567.595 313.914 574.914 326.331 574.965 337.637C575.015 348.652 567.978 360.813 552.412 361.485C551.906 361.506 551.397 361.517 550.884 361.517Z" fill="#3F3D56"/>
<path d="M417.663 504.017H477.663C482.081 504.017 485.663 500.435 485.663 496.017C485.663 491.599 482.081 488.017 477.663 488.017H455.663V353.017H439.663V488.017H417.663C413.245 488.017 409.663 491.599 409.663 496.017C409.663 500.435 413.245 504.017 417.663 504.017Z" fill="#3F3D56"/>
<path d="M471.969 449.592L482.305 455.206L509.667 417.375L494.411 409.088L471.969 449.592Z" fill="#A0616A"/>
<path d="M476.945 436.111L495.709 441.987L492.722 449.848L505.589 468.522C507.235 470.911 506.633 474.182 504.245 475.828C502.823 476.808 501.012 477.027 499.398 476.413L477.554 468.114L476.743 458.908L472.319 466.125L464.083 462.996L476.945 436.111Z" fill="#2F2E41"/>
<path d="M498.084 68.0756C499.01 74.4229 494.615 80.3189 488.268 81.2447C487.591 81.3435 486.907 81.3822 486.223 81.3605L446.372 166.156L433.873 148.726L474.897 68.545C475.527 62.1266 481.241 57.4345 487.66 58.0648C493.03 58.5922 497.34 62.7308 498.084 68.0756Z" fill="#A0616A"/>
<path d="M365.835 183.301C365.835 183.301 364.767 198.114 381.52 201.02C398.273 203.925 443.059 175.605 450.414 171.256C457.77 166.907 471.476 112.195 471.476 112.195L459.556 92.0336C444.839 110.651 433.281 127.818 432.579 140.004L365.835 183.301Z" fill="#519EE6"/>
<path d="M385.176 234.327L388.794 249.873C388.794 249.873 388.83 264.208 391.368 266.851C393.889 269.482 449.324 264.2 449.324 264.2C449.324 264.2 443.446 241.1 443.524 223.622L385.176 234.327Z" fill="#A0616A"/>
<path d="M502.282 433.18L482.282 422.18C481.902 396.155 497.556 360.937 516.122 324.048C474.599 331.189 435.426 333.477 401.543 324.838C389.968 321.781 382.993 309.998 385.88 298.38C386.012 297.832 386.164 297.29 386.338 296.753C390.393 284.381 381.3 276.625 389.663 263.017C411.659 255.505 432.555 253.383 451.663 260.017L463.636 286.488L522.978 278.809C534.978 277.375 545.868 285.939 547.303 297.939C547.309 297.993 547.316 298.048 547.322 298.103C547.401 298.747 547.453 299.394 547.478 300.043C535.479 356.296 522.024 406.912 502.282 433.18Z" fill="#2F2E41"/>
<path d="M377.12 135.904L399.981 134.554C401.957 134.438 403.79 135.587 404.545 137.418L411.005 153.079L437.856 175.271C437.856 175.271 448.486 188.799 448.511 206.27C448.536 223.742 452.283 264.18 452.283 264.18C452.283 264.18 436.768 242.342 427.191 248.15C425.562 249.138 424.989 251.159 423.283 252.18C422.431 252.69 420.465 252.194 419.605 252.705C406.409 260.538 392.647 268.191 391.362 266.849C388.837 264.215 385.774 250.752 385.774 250.752L364.848 173.865C362.551 165.673 364.036 156.884 368.897 149.903C370.359 147.844 371.891 146.313 373.315 146.06C376.511 145.379 374.811 138.216 377.12 135.904Z" fill="#519EE6"/>
<path d="M571.589 482.16L581.239 475.451L559.378 434.207L545.136 444.109L571.589 482.16Z" fill="#A0616A"/>
<path d="M573.048 454.486L557.924 468.005C533.876 441.209 515.697 403.629 500.291 360.952C459.925 349.13 429.484 330.064 402.909 307.425C393.893 299.797 387.135 289.997 394.824 280.704C395.183 280.27 395.559 279.85 395.95 279.444C405.028 270.114 428.051 271.892 441.535 263.344L471.656 295.541L469.761 304.172L526.339 323.337C537.728 327.329 543.725 339.798 539.733 351.187C539.714 351.243 539.694 351.299 539.674 351.354C539.462 351.968 539.224 352.572 538.961 353.166L573.048 454.486Z" fill="#2F2E41"/>
<path d="M565.963 479.44L581.41 467.275L586.21 474.18L608.888 474.111C611.789 474.102 614.148 476.446 614.158 479.347C614.163 481.073 613.32 482.692 611.903 483.677L592.716 497.015L584.661 492.484L588.117 500.211L580.883 505.24L565.963 479.44Z" fill="#2F2E41"/>
<path d="M410.878 329.673C404.974 327.167 402.219 320.349 404.725 314.444C404.992 313.814 405.314 313.21 405.688 312.637L353.934 234.535L375.32 232.909L422.522 309.616C427.679 313.489 428.72 320.809 424.848 325.966C421.607 330.281 415.832 331.813 410.878 329.673Z" fill="#A0616A"/>
<path d="M381.121 156.811C381.121 156.811 369.018 148.203 357.832 161.009C346.647 173.815 347.581 226.796 347.476 235.339C347.443 238.015 351.306 243.788 356.629 250.456C359.018 253.45 361.702 256.624 364.46 259.779C366.055 261.605 364.68 265.406 366.283 267.18C367.876 268.945 372.447 268.685 373.962 270.323C381.157 278.098 387.001 284.017 387.001 284.017L410.421 284.305C410.685 266.895 398.763 251.354 383.445 236.335L381.121 156.811Z" fill="#519EE6"/>
<path d="M357.514 81.0078C355.297 82.6082 352.964 84.2569 350.258 84.6535C347.553 85.0501 344.385 83.7421 343.636 81.1121C342.721 77.8964 345.625 74.9684 348.234 72.8785L356.51 66.2515C358.026 64.9074 359.737 63.8012 361.584 62.9708C363.464 62.1436 365.618 62.2156 367.439 63.1665C369.247 64.3878 370.293 66.4596 370.202 68.6401C370.084 70.7893 369.375 72.8641 368.152 74.6358C365.048 79.4745 360.103 82.8362 354.461 83.9425" fill="#2F2E41"/>
<path d="M420.283 253.18H360.283C355.865 253.18 352.283 256.762 352.283 261.18C352.283 265.598 355.865 269.18 360.283 269.18H382.283V331.18H398.283V269.18H420.283C424.701 269.18 428.283 265.598 428.283 261.18C428.283 256.762 424.701 253.18 420.283 253.18Z" fill="#3F3D56"/>
<path d="M361.19 64.2235C361.432 58.2254 355.04 53.4759 349.051 53.8513C343.061 54.2268 337.912 58.4398 334.516 63.3891C331.12 68.3342 329.08 74.0621 326.405 79.4314C323.73 84.8006 320.168 90.0577 314.852 92.8401C309.537 95.6184 302.139 95.1227 298.466 90.3791C296.149 93.8922 295.645 98.299 297.109 102.244C298.613 106.139 301.418 109.393 305.047 111.455C306.492 112.312 308.035 112.991 309.643 113.476C310.306 111.687 311.239 110.009 312.41 108.501C311.881 110.286 311.679 112.152 311.814 114.008C314.292 114.483 316.842 114.443 319.304 113.89C324.207 112.793 328.306 109.451 330.366 104.869C332.612 99.5511 331.468 93.488 331.949 87.7357C332.425 81.9823 335.892 75.4143 341.665 75.3206C346.061 75.2482 345.479 75.6107 348.265 79.0123" fill="#2F2E41"/>
<path d="M401.111 95.7419C401.111 110.101 389.471 121.742 375.111 121.742C360.752 121.742 347.111 105.101 347.111 90.7419C347.111 76.3825 360.752 69.7419 375.111 69.7419C389.471 69.7419 401.111 81.3825 401.111 95.7419Z" fill="#2F2E41"/>
<path d="M387.923 126.9C401.345 124.154 409.999 111.047 407.252 97.6258C404.506 84.2044 391.4 75.5505 377.978 78.2968C364.557 81.043 355.903 94.1495 358.649 107.571C361.396 120.992 374.502 129.646 387.923 126.9Z" fill="#A0616A"/>
<path d="M414.111 98.7419C406.768 100.747 399.354 102.849 396.491 98.7419C395.935 96.0189 394.881 93.4221 393.381 91.0819C393.099 93.7027 392.484 96.2767 391.551 98.7419C382.274 100.758 373.604 101.24 366.111 98.7419C365.081 100.605 364.483 102.676 364.361 104.802C363.991 104.569 363.603 104.365 363.201 104.192C362.719 103.92 362.144 103.869 361.621 104.052C361.26 104.27 361.02 104.643 360.971 105.062C360.922 105.479 360.942 105.902 361.031 106.312C361.136 107.742 361.564 109.13 362.281 110.372C362.855 111.237 363.766 111.821 364.791 111.982C365.831 117.832 374.111 125.742 374.111 125.742C349.111 126.742 349.111 109.782 349.111 93.7419L352.111 87.7419H362.111V74.7419H390.111C403.365 74.7454 414.108 85.4885 414.111 98.7419Z" fill="#2F2E41"/>
<path d="M641.947 506.911L203.197 507.219C202.539 507.222 202.003 506.692 202 506.034C201.997 505.377 202.527 504.841 203.184 504.837H203.197L641.947 504.53C642.604 504.532 643.136 505.067 643.134 505.725C643.132 506.379 642.601 506.909 641.947 506.911Z" fill="#CACACA"/>
<path d="M934.947 506.911L708.197 507.219C707.539 507.222 707.003 506.692 707 506.034C706.997 505.377 707.527 504.841 708.185 504.837H708.197L934.947 504.53C935.605 504.528 936.139 505.059 936.141 505.717C936.144 506.374 935.612 506.909 934.955 506.911H934.947Z" fill="#CACACA"/>
<path d="M651.975 148H566.021C558.556 147.992 552.506 141.942 552.498 134.477V77.5234C552.506 70.0581 558.556 64.0083 566.021 64H651.975C659.44 64.0083 665.49 70.0581 665.498 77.5234V134.477C665.49 141.942 659.44 147.992 651.975 148ZM566.021 66C559.66 66.0072 554.505 71.1622 554.498 77.5234V134.477C554.505 140.838 559.66 145.993 566.021 146H651.975C658.336 145.993 663.491 140.838 663.498 134.477V77.5234C663.491 71.1622 658.336 66.0072 651.975 66L566.021 66Z" fill="#E6E6E6"/>
<path d="M591.489 82H568.498V84H591.489V82Z" fill="#E6E6E6"/>
<path d="M619.498 90H568.498V92H619.498V90Z" fill="#E6E6E6"/>
<path d="M619.498 97H568.498V99H619.498V97Z" fill="#E6E6E6"/>
<path d="M633.498 104H568.498V106H633.498V104Z" fill="#E6E6E6"/>
<path d="M602.498 111H568.498V113H602.498V111Z" fill="#E6E6E6"/>
<path d="M630.498 118H568.498V120H630.498V118Z" fill="#E6E6E6"/>
<path d="M579.498 125H568.498V127H579.498V125Z" fill="#E6E6E6"/>
<path d="M567.749 38.9583C567.652 38.9583 567.555 38.9207 567.482 38.8459L565.348 36.6647C565.206 36.5194 565.206 36.2871 565.348 36.1418L567.482 33.9608C567.626 33.8133 567.863 33.8109 568.01 33.955C568.158 34.0994 568.161 34.3362 568.016 34.4837L566.138 36.4033L568.016 38.3229C568.161 38.4705 568.158 38.7073 568.01 38.8517C567.938 38.9229 567.843 38.9583 567.749 38.9583Z" fill="#CCCCCC"/>
<path d="M571.334 38.9584C571.24 38.9584 571.145 38.9229 571.072 38.8517C570.925 38.7073 570.922 38.4707 571.067 38.323L572.944 36.4033L571.067 34.4837C570.922 34.3362 570.925 34.0994 571.072 33.955C571.22 33.8103 571.457 33.8131 571.601 33.9608L573.735 36.1418C573.877 36.2871 573.877 36.5194 573.735 36.6647L571.601 38.8459C571.528 38.9207 571.431 38.9584 571.334 38.9584Z" fill="#CCCCCC"/>
<path d="M682.957 33.5449H678.99C678.537 33.5449 678.171 33.9113 678.171 34.3638V38.335C678.171 38.7875 678.537 39.1539 678.99 39.1539H682.957C683.41 39.1539 683.78 38.7875 683.78 38.335V34.3638C683.78 33.9113 683.41 33.5449 682.957 33.5449Z" fill="#CCCCCC"/>
<path d="M673.236 33.5449H669.268C668.816 33.5449 668.449 33.9113 668.449 34.3638V38.335C668.449 38.7875 668.816 39.1539 669.268 39.1539H673.236C673.688 39.1539 674.058 38.7875 674.058 38.335V34.3638C674.058 33.9113 673.688 33.5449 673.236 33.5449Z" fill="#CCCCCC"/>
<path d="M692.119 33.7319H688.152C687.699 33.7319 687.333 34.0983 687.333 34.5508V38.522C687.333 38.9745 687.699 39.3409 688.152 39.3409H692.119C692.572 39.3409 692.942 38.9745 692.942 38.522V34.5508C692.942 34.0983 692.572 33.7319 692.119 33.7319Z" fill="#CCCCCC"/>
<path d="M632.318 35.2426H600.605C600.051 35.2426 599.606 35.6913 599.606 36.241C599.606 36.7907 600.051 37.2394 600.605 37.2394H632.318C632.868 37.2394 633.317 36.7906 633.317 36.241C633.317 35.6913 632.868 35.2426 632.318 35.2426Z" fill="#CCCCCC"/>
<g filter="url(#filter0_i_407_90)">
<rect x="883" y="104" width="107" height="288" rx="6" fill="#D9D9D9"/>
</g>
<rect x="1017.5" y="61.5" width="102" height="283" rx="3.5" fill="#519EE6" fill-opacity="0.3" stroke="#519EE6" stroke-width="5" stroke-dasharray="10 10"/>
<g filter="url(#filter1_i_407_90)">
<rect width="107" height="288" rx="6" transform="matrix(-1 0 0 1 239 104)" fill="#D9D9D9"/>
</g>
<rect x="-2.5" y="2.5" width="102" height="283" rx="3.5" transform="matrix(-1 0 0 1 102 59)" fill="#519EE6" fill-opacity="0.3" stroke="#519EE6" stroke-width="5" stroke-dasharray="10 10"/>
</g>
<defs>
<filter id="filter0_i_407_90" x="883" y="104" width="107" height="292" filterUnits="userSpaceOnUse" color-interpolation-filters="sRGB">
<feFlood flood-opacity="0" result="BackgroundImageFix"/>
<feBlend mode="normal" in="SourceGraphic" in2="BackgroundImageFix" result="shape"/>
<feColorMatrix in="SourceAlpha" type="matrix" values="0 0 0 0 0 0 0 0 0 0 0 0 0 0 0 0 0 0 127 0" result="hardAlpha"/>
<feMorphology radius="6" operator="erode" in="SourceAlpha" result="effect1_innerShadow_407_90"/>
<feOffset dy="4"/>
<feGaussianBlur stdDeviation="7.5"/>
<feComposite in2="hardAlpha" operator="arithmetic" k2="-1" k3="1"/>
<feColorMatrix type="matrix" values="0 0 0 0 0 0 0 0 0 0 0 0 0 0 0 0 0 0 0.25 0"/>
<feBlend mode="normal" in2="shape" result="effect1_innerShadow_407_90"/>
</filter>
<filter id="filter1_i_407_90" x="132" y="104" width="107" height="292" filterUnits="userSpaceOnUse" color-interpolation-filters="sRGB">
<feFlood flood-opacity="0" result="BackgroundImageFix"/>
<feBlend mode="normal" in="SourceGraphic" in2="BackgroundImageFix" result="shape"/>
<feColorMatrix in="SourceAlpha" type="matrix" values="0 0 0 0 0 0 0 0 0 0 0 0 0 0 0 0 0 0 127 0" result="hardAlpha"/>
<feMorphology radius="6" operator="erode" in="SourceAlpha" result="effect1_innerShadow_407_90"/>
<feOffset dy="4"/>
<feGaussianBlur stdDeviation="7.5"/>
<feComposite in2="hardAlpha" operator="arithmetic" k2="-1" k3="1"/>
<feColorMatrix type="matrix" values="0 0 0 0 0 0 0 0 0 0 0 0 0 0 0 0 0 0 0.25 0"/>
<feBlend mode="normal" in2="shape" result="effect1_innerShadow_407_90"/>
</filter>
<clipPath id="clip0_407_90">
<rect width="1122" height="507" fill="white"/>
</clipPath>
</defs>
</svg>
